<?xml version="1.0" encoding="utf-8"?>
<!-- Generator: Adobe Illustrator 26.5.0, SVG Export Plug-In . SVG Version: 6.00 Build 0)  -->
<svg version="1.1" id="Layer_1" xmlns="http://www.w3.org/2000/svg" xmlns:xlink="http://www.w3.org/1999/xlink" x="0px" y="0px"
	 viewBox="0 0 595.28 436.63" style="enable-background:new 0 0 595.28 436.63;" xml:space="preserve">
<style type="text/css">
	.st0{fill:url(#SVGID_1_);}
	.st1{fill:url(#SVGID_00000016782814824410901930000017282533675733018287_);}
	.st2{fill:url(#SVGID_00000085252580711887850550000018434224528598996391_);}
	.st3{fill:url(#SVGID_00000179628606267518402210000011561099107198148229_);}
	.st4{fill:url(#SVGID_00000084495337239349580080000005870778104910861200_);}
	.st5{fill:url(#SVGID_00000056391033953155824120000012717692019596419733_);}
	.st6{fill:url(#SVGID_00000176017350607985098200000005716541341052601234_);}
	.st7{fill:url(#SVGID_00000152264852137628901910000009826916861115438213_);}
	.st8{fill:url(#SVGID_00000183235304965269034290000007563242585708591269_);}
	.st9{fill:url(#SVGID_00000115487507809684321600000004652478087815194801_);}
	.st10{fill:url(#SVGID_00000135648574462283278040000017571432253064257726_);}
	.st11{fill:url(#SVGID_00000057115620006836367850000010786068872827410618_);}
	.st12{fill:url(#SVGID_00000008107825987554395560000003587392219028606608_);}
	.st13{fill:url(#SVGID_00000032630745370530887220000007207443771580616843_);}
	.st14{fill:url(#SVGID_00000140713039906447706870000000200336079883336627_);}
	.st15{fill:url(#SVGID_00000007424235882563392100000003154699457715203725_);}
	.st16{fill:url(#SVGID_00000032639146100628529810000006885711102461029536_);}
	.st17{fill:url(#SVGID_00000073687714948757380540000006883877264583334314_);}
	.st18{fill:url(#SVGID_00000031896788534619284040000003052008893737365381_);}
	.st19{fill:url(#SVGID_00000039093244704459890180000015259616396787674765_);}
	.st20{fill:url(#SVGID_00000121277136595702416080000008293464874895158148_);}
	.st21{fill:url(#SVGID_00000119078381231012713520000009607987619732526519_);}
	.st22{fill:url(#SVGID_00000114788876345284465830000016364445515872906678_);}
	.st23{fill:url(#SVGID_00000039098734337997994130000015290446258582508695_);}
	.st24{fill:url(#SVGID_00000101102603881292967840000006262108051520042923_);}
	.st25{fill:url(#SVGID_00000127759468721649673050000003755436724645152642_);}
	.st26{fill:url(#SVGID_00000020365175074739867710000014949280660522727555_);}
	.st27{fill:url(#SVGID_00000031179244832614146990000008464827466767643573_);}
</style>
<g>
	<linearGradient id="SVGID_1_" gradientUnits="userSpaceOnUse" x1="297.6378" y1="372.4976" x2="297.6378" y2="71.1868">
		<stop  offset="0" style="stop-color:#1D71B8"/>
		<stop  offset="0.9988" style="stop-color:#36A9E1"/>
	</linearGradient>
	<path class="st0" d="M530.61,210.53v97.57c0,33.21-26.93,60.13-60.13,60.13H128.31c-1.21,0-2.41-0.03-3.6-0.1
		c-33.48-1.86-60.05-29.6-60.05-63.55h80.46v-90.54c0-35.15,28.49-63.64,63.65-63.64v201.02h16.81V230.86h63.65v120.56h16.81V150.4
		h63.65v201.02h16.81V150.4h63.65v201.02h16.81V150.4h3.52C503.69,150.4,530.61,177.32,530.61,210.53z"/>
	
		<linearGradient id="SVGID_00000145743288547958041700000008517669788451664528_" gradientUnits="userSpaceOnUse" x1="136.717" y1="372.4976" x2="136.717" y2="71.1868">
		<stop  offset="0" style="stop-color:#1D71B8"/>
		<stop  offset="0.9988" style="stop-color:#36A9E1"/>
	</linearGradient>
	<path style="fill:url(#SVGID_00000145743288547958041700000008517669788451664528_);" d="M83.31,269.13
		c-11.52-11.51-18.64-27.42-18.64-45V69.94h80.46c35.15,0,63.65,28.49,63.65,63.65h-80.46v154.18
		C110.73,287.77,94.82,280.65,83.31,269.13z"/>
	
		<linearGradient id="SVGID_00000146457770984612169880000001809826222767761843_" gradientUnits="userSpaceOnUse" x1="257.4076" y1="372.4976" x2="257.4076" y2="71.1868">
		<stop  offset="0" style="stop-color:#1D71B8"/>
		<stop  offset="0.9988" style="stop-color:#36A9E1"/>
	</linearGradient>
	
		<rect x="225.58" y="150.4" style="fill:url(#SVGID_00000146457770984612169880000001809826222767761843_);" width="63.65" height="63.65"/>
	<g>
		
			<linearGradient id="SVGID_00000090992430902924767300000005085045631834303661_" gradientUnits="userSpaceOnUse" x1="230.7444" y1="372.4976" x2="230.7444" y2="71.1868">
			<stop  offset="0" style="stop-color:#1D71B8"/>
			<stop  offset="0.9988" style="stop-color:#36A9E1"/>
		</linearGradient>
		<path style="fill:url(#SVGID_00000090992430902924767300000005085045631834303661_);" d="M232.03,91.54
			c-4.06,0-7.02-0.81-8.88-2.44c-1.76-1.54-2.64-3.91-2.64-7.11c0-2.07,0.36-3.89,1.09-5.45l3.2-0.56c-0.83,1.7-1.25,3.58-1.25,5.66
			c0,2.61,0.61,4.48,1.84,5.62c1.36,1.25,3.69,1.87,6.99,1.87h5.59V76.11h3.01v15.43H232.03z M227.99,72.6
			c-0.33-0.34-0.5-0.77-0.5-1.28c0-0.47,0.17-0.88,0.5-1.22c0.34-0.34,0.76-0.51,1.25-0.51c0.48,0,0.89,0.17,1.22,0.5
			c0.34,0.34,0.51,0.75,0.51,1.23c0,0.49-0.17,0.91-0.51,1.27c-0.34,0.34-0.75,0.51-1.22,0.51
			C228.75,73.09,228.33,72.93,227.99,72.6z M232.84,72.6c-0.35-0.34-0.53-0.77-0.53-1.28c0-0.47,0.18-0.88,0.53-1.22
			c0.34-0.34,0.76-0.51,1.25-0.51c0.48,0,0.88,0.17,1.2,0.5c0.33,0.34,0.5,0.75,0.5,1.23c0,0.5-0.17,0.92-0.5,1.27
			c-0.33,0.34-0.73,0.51-1.2,0.51C233.59,73.09,233.17,72.93,232.84,72.6z"/>
		
			<linearGradient id="SVGID_00000145748158383713857090000006188785828401492870_" gradientUnits="userSpaceOnUse" x1="277.6851" y1="372.4976" x2="277.6851" y2="71.1868">
			<stop  offset="0" style="stop-color:#1D71B8"/>
			<stop  offset="0.9988" style="stop-color:#36A9E1"/>
		</linearGradient>
		<path style="fill:url(#SVGID_00000145748158383713857090000006188785828401492870_);" d="M278.94,95.19
			c-0.34-0.34-0.76-0.5-1.27-0.5c-0.49,0-0.91,0.17-1.25,0.52c-0.36,0.34-0.53,0.76-0.53,1.25c0,0.5,0.17,0.93,0.53,1.27
			c0.34,0.34,0.76,0.51,1.25,0.51c0.5,0,0.92-0.17,1.27-0.51c0.36-0.36,0.54-0.78,0.54-1.27C279.48,95.95,279.3,95.53,278.94,95.19z
			"/>
		
			<linearGradient id="SVGID_00000081609794156110303400000016574857586982571957_" gradientUnits="userSpaceOnUse" x1="282.5034" y1="372.4976" x2="282.5034" y2="71.1868">
			<stop  offset="0" style="stop-color:#1D71B8"/>
			<stop  offset="0.9988" style="stop-color:#36A9E1"/>
		</linearGradient>
		<path style="fill:url(#SVGID_00000081609794156110303400000016574857586982571957_);" d="M316.35,77.72
			c-1.15-1.31-2.76-1.96-4.86-1.96c-1.98,0-3.77,0.63-5.37,1.9c-1.68,1.35-2.9,3.21-3.65,5.61h-0.03c0.23-1.66,0.36-3.61,0.36-5.88
			V68.4h-3.02v20.73h-7.64V68.4h-3.01v20.73h-7.76V76.11h-3.01v13.02h-28.39V68.4h-3.01v23.14h61.5c3.33,0,5.81-0.82,7.45-2.47
			c1.42-1.44,2.13-3.39,2.13-5.86C318.05,80.84,317.48,79.02,316.35,77.72z M308.77,89.13h-6.01c0.27-2.86,1.13-5.35,2.58-7.48
			c1.58-2.34,3.43-3.51,5.56-3.51c2.7,0,4.04,1.76,4.04,5.28C314.93,87.23,312.88,89.13,308.77,89.13z"/>
		
			<linearGradient id="SVGID_00000086652473784647284900000006317208155646693307_" gradientUnits="userSpaceOnUse" x1="370.9944" y1="372.4976" x2="370.9944" y2="71.1868">
			<stop  offset="0" style="stop-color:#1D71B8"/>
			<stop  offset="0.9988" style="stop-color:#36A9E1"/>
		</linearGradient>
		<path style="fill:url(#SVGID_00000086652473784647284900000006317208155646693307_);" d="M372.25,95.19
			c-0.34-0.34-0.76-0.5-1.27-0.5c-0.49,0-0.91,0.17-1.25,0.52c-0.36,0.34-0.53,0.76-0.53,1.25c0,0.5,0.17,0.93,0.53,1.27
			c0.34,0.34,0.76,0.51,1.25,0.51c0.5,0,0.92-0.17,1.27-0.51c0.36-0.36,0.54-0.78,0.54-1.27C372.79,95.95,372.61,95.53,372.25,95.19
			z"/>
		
			<linearGradient id="SVGID_00000135681694121350113490000010173214890768243592_" gradientUnits="userSpaceOnUse" x1="383.5886" y1="372.4976" x2="383.5886" y2="71.1868">
			<stop  offset="0" style="stop-color:#1D71B8"/>
			<stop  offset="0.9988" style="stop-color:#36A9E1"/>
		</linearGradient>
		<path style="fill:url(#SVGID_00000135681694121350113490000010173214890768243592_);" d="M387.26,70.08
			c-0.34-0.34-0.74-0.5-1.22-0.5c-0.49,0-0.91,0.17-1.25,0.51c-0.36,0.34-0.53,0.75-0.53,1.22c0,0.51,0.17,0.94,0.53,1.28
			c0.34,0.33,0.76,0.5,1.25,0.5c0.48,0,0.89-0.17,1.22-0.51c0.32-0.34,0.48-0.76,0.48-1.27C387.74,70.83,387.58,70.43,387.26,70.08z
			 M382.4,70.08c-0.34-0.34-0.74-0.5-1.22-0.5c-0.49,0-0.9,0.17-1.23,0.51c-0.34,0.34-0.51,0.75-0.51,1.22
			c0,0.51,0.17,0.94,0.51,1.28c0.34,0.33,0.74,0.5,1.23,0.5c0.48,0,0.89-0.17,1.22-0.51c0.34-0.36,0.51-0.78,0.51-1.27
			C382.91,70.83,382.75,70.43,382.4,70.08z"/>
		
			<linearGradient id="SVGID_00000062173145178488322630000015358886898599620279_" gradientUnits="userSpaceOnUse" x1="394.2748" y1="372.4976" x2="394.2748" y2="71.1868">
			<stop  offset="0" style="stop-color:#1D71B8"/>
			<stop  offset="0.9988" style="stop-color:#36A9E1"/>
		</linearGradient>
		<path style="fill:url(#SVGID_00000062173145178488322630000015358886898599620279_);" d="M397.94,70.08
			c-0.33-0.34-0.74-0.5-1.21-0.5c-0.5,0-0.91,0.17-1.25,0.51c-0.35,0.34-0.53,0.75-0.53,1.22c0,0.51,0.18,0.94,0.53,1.28
			c0.34,0.33,0.76,0.5,1.25,0.5c0.48,0,0.89-0.17,1.21-0.51c0.32-0.34,0.48-0.76,0.48-1.27C398.43,70.83,398.26,70.43,397.94,70.08z
			 M393.09,70.08c-0.33-0.34-0.74-0.5-1.21-0.5c-0.5,0-0.91,0.17-1.23,0.51c-0.34,0.34-0.52,0.75-0.52,1.22
			c0,0.51,0.17,0.94,0.52,1.28c0.33,0.33,0.74,0.5,1.23,0.5c0.48,0,0.89-0.17,1.21-0.51c0.34-0.36,0.52-0.78,0.52-1.27
			C393.6,70.83,393.43,70.43,393.09,70.08z"/>
		
			<linearGradient id="SVGID_00000054964570125953517280000008549137016116219008_" gradientUnits="userSpaceOnUse" x1="361.7131" y1="372.4976" x2="361.7131" y2="71.1868">
			<stop  offset="0" style="stop-color:#1D71B8"/>
			<stop  offset="0.9988" style="stop-color:#36A9E1"/>
		</linearGradient>
		<path style="fill:url(#SVGID_00000054964570125953517280000008549137016116219008_);" d="M393.32,76.11v13.02h-7.68V76.11h-3.01
			v13.02h-7.95V76.11h-3.01v13.02h-26.78c-1.81,0-3.58-0.66-5.32-1.99c3.02-1.79,4.54-3.92,4.54-6.38c0-1.44-0.5-2.62-1.5-3.54
			c-1.13-1.03-2.74-1.54-4.84-1.54c-2.85,0-6.02,1.31-9.49,3.94l-0.27,2.1c1.97,0.64,4.37,2.32,7.2,5.04
			c-2.81,1.36-4.64,2.35-5.48,3c-1.76,1.31-2.63,2.84-2.63,4.58c0,1.66,0.7,2.98,2.1,3.98c1.56,1.11,3.84,1.66,6.85,1.66
			c1.84,0,3.73-0.18,5.67-0.54l-0.16-2.31c-1.77,0.31-3.49,0.46-5.14,0.46c-4.15,0-6.23-1.17-6.23-3.51c0-1.11,0.71-2.15,2.13-3.13
			c0.58-0.38,2.15-1.21,4.72-2.48c2.34,2.03,4.81,3.04,7.4,3.04h51.88V76.11H393.32z M331.1,80.58c2.47-1.75,4.59-2.63,6.33-2.63
			c1.21,0,2.13,0.32,2.77,0.95c0.58,0.56,0.87,1.32,0.87,2.27c0,1.58-1.14,3.03-3.41,4.36C334.73,82.79,332.54,81.14,331.1,80.58z"
			/>
		
			<linearGradient id="SVGID_00000115475588807806124500000009498999100941609624_" gradientUnits="userSpaceOnUse" x1="424.7811" y1="372.4976" x2="424.7811" y2="71.1868">
			<stop  offset="0" style="stop-color:#1D71B8"/>
			<stop  offset="0.9988" style="stop-color:#36A9E1"/>
		</linearGradient>
		<path style="fill:url(#SVGID_00000115475588807806124500000009498999100941609624_);" d="M428.44,70.08
			c-0.32-0.34-0.72-0.5-1.21-0.5c-0.49,0-0.91,0.17-1.25,0.51c-0.35,0.34-0.53,0.75-0.53,1.22c0,0.51,0.18,0.94,0.53,1.28
			c0.33,0.33,0.74,0.5,1.25,0.5c0.47,0,0.87-0.17,1.21-0.51c0.33-0.34,0.5-0.76,0.5-1.27C428.93,70.83,428.76,70.43,428.44,70.08z
			 M423.59,70.08c-0.33-0.34-0.74-0.5-1.22-0.5c-0.49,0-0.91,0.17-1.25,0.51c-0.33,0.34-0.5,0.75-0.5,1.22
			c0,0.51,0.17,0.94,0.5,1.28c0.34,0.33,0.76,0.5,1.25,0.5c0.48,0,0.88-0.17,1.22-0.51c0.34-0.36,0.52-0.78,0.52-1.27
			C424.11,70.83,423.94,70.43,423.59,70.08z"/>
		
			<linearGradient id="SVGID_00000047761155576012144480000007511867385010257287_" gradientUnits="userSpaceOnUse" x1="467.3182" y1="372.4976" x2="467.3182" y2="71.1868">
			<stop  offset="0" style="stop-color:#1D71B8"/>
			<stop  offset="0.9988" style="stop-color:#36A9E1"/>
		</linearGradient>
		<path style="fill:url(#SVGID_00000047761155576012144480000007511867385010257287_);" d="M470.97,95.19
			c-0.34-0.34-0.74-0.5-1.22-0.5c-0.49,0-0.91,0.17-1.25,0.52c-0.34,0.33-0.52,0.74-0.52,1.22c0,0.5,0.17,0.92,0.52,1.26
			c0.34,0.34,0.76,0.52,1.25,0.52c0.48,0,0.89-0.18,1.22-0.53c0.33-0.34,0.5-0.76,0.5-1.25C471.47,95.93,471.3,95.52,470.97,95.19z
			 M466.13,95.19c-0.34-0.34-0.75-0.5-1.23-0.5c-0.49,0-0.9,0.17-1.23,0.52c-0.33,0.33-0.5,0.74-0.5,1.22c0,0.51,0.17,0.93,0.5,1.26
			c0.34,0.34,0.74,0.52,1.23,0.52c0.48,0,0.89-0.18,1.23-0.53c0.34-0.34,0.52-0.76,0.52-1.25
			C466.65,95.93,466.47,95.52,466.13,95.19z"/>
		
			<linearGradient id="SVGID_00000028301265444135767290000017673126718823164544_" gradientUnits="userSpaceOnUse" x1="478.6617" y1="372.4976" x2="478.6617" y2="71.1868">
			<stop  offset="0" style="stop-color:#1D71B8"/>
			<stop  offset="0.9988" style="stop-color:#36A9E1"/>
		</linearGradient>
		<path style="fill:url(#SVGID_00000028301265444135767290000017673126718823164544_);" d="M479.91,95.19
			c-0.34-0.34-0.76-0.5-1.27-0.5c-0.49,0-0.91,0.17-1.25,0.52c-0.36,0.34-0.53,0.76-0.53,1.25c0,0.5,0.17,0.93,0.53,1.27
			c0.34,0.34,0.76,0.51,1.25,0.51c0.49,0,0.91-0.17,1.27-0.51c0.36-0.36,0.54-0.78,0.54-1.27
			C480.46,95.95,480.27,95.53,479.91,95.19z"/>
		
			<linearGradient id="SVGID_00000051376248016123399930000013384449751420837031_" gradientUnits="userSpaceOnUse" x1="515.9579" y1="372.4976" x2="515.9579" y2="71.1868">
			<stop  offset="0" style="stop-color:#1D71B8"/>
			<stop  offset="0.9988" style="stop-color:#36A9E1"/>
		</linearGradient>
		<path style="fill:url(#SVGID_00000051376248016123399930000013384449751420837031_);" d="M519.63,70.08
			c-0.33-0.34-0.74-0.5-1.21-0.5c-0.5,0-0.91,0.17-1.25,0.51c-0.35,0.34-0.53,0.75-0.53,1.22c0,0.51,0.18,0.94,0.53,1.28
			c0.34,0.33,0.76,0.5,1.25,0.5c0.48,0,0.89-0.17,1.21-0.51c0.32-0.34,0.48-0.76,0.48-1.27C520.11,70.83,519.95,70.43,519.63,70.08z
			 M514.77,70.08c-0.33-0.34-0.74-0.5-1.21-0.5c-0.5,0-0.91,0.17-1.23,0.51c-0.34,0.34-0.52,0.75-0.52,1.22
			c0,0.51,0.17,0.94,0.52,1.28c0.33,0.33,0.74,0.5,1.23,0.5c0.48,0,0.89-0.17,1.21-0.51c0.34-0.36,0.52-0.78,0.52-1.27
			C515.29,70.83,515.11,70.43,514.77,70.08z"/>
		
			<linearGradient id="SVGID_00000137853103560409702420000015578481874995244425_" gradientUnits="userSpaceOnUse" x1="462.758" y1="372.4976" x2="462.758" y2="71.1868">
			<stop  offset="0" style="stop-color:#1D71B8"/>
			<stop  offset="0.9988" style="stop-color:#36A9E1"/>
		</linearGradient>
		<path style="fill:url(#SVGID_00000137853103560409702420000015578481874995244425_);" d="M515,76.11v13.02h-8.93
			c1.48-1.42,2.23-3.39,2.23-5.92c0-2.37-0.56-4.19-1.7-5.49c-1.15-1.31-2.76-1.96-4.86-1.96c-1.98,0-3.76,0.63-5.36,1.9
			c-1.69,1.35-2.91,3.21-3.65,5.61h-0.03c0.23-1.66,0.36-3.61,0.36-5.88V68.4h-3.01v20.73h-7.69V76.11h-3.01v13.02h-9.42V76.11
			h-3.01v13.02h-35.25V76.91c-1.99-0.77-4.18-1.15-6.59-1.15c-2.67,0-4.75,0.81-6.25,2.43c-1.35,1.48-2.02,3.39-2.02,5.7
			c0,5.1,2.86,7.64,8.59,7.64h3.15v5.57c-2.29,0.18-4.43,0.27-6.4,0.27c-4.22,0-7.21-0.6-8.97-1.81c-1.76-1.2-2.64-3.22-2.64-6.08
			c0-2.11,0.31-4.23,0.93-6.36l-3.13,0.59c-0.54,2.01-0.82,4.04-0.82,6.11c0,3.47,1.11,5.99,3.32,7.56
			c2.24,1.58,5.89,2.37,10.92,2.37c3.02,0,6.32-0.15,9.9-0.44v-7.8h86.36V76.11H515z M428.7,89.13h-2.88
			c-3.98,0-5.98-1.86-5.98-5.57c0-1.64,0.44-2.94,1.31-3.92c0.89-0.99,2.08-1.49,3.57-1.49c1.58,0,2.9,0.25,3.97,0.76V89.13z
			 M499.37,89.13h-6.36c0.27-2.86,1.14-5.35,2.58-7.48c1.58-2.34,3.43-3.51,5.56-3.51c2.69,0,4.04,1.76,4.04,5.28
			C505.19,87.12,503.26,89.03,499.37,89.13z"/>
		
			<linearGradient id="SVGID_00000146482450196227218350000014837975791454537637_" gradientUnits="userSpaceOnUse" x1="236.1591" y1="372.4976" x2="236.1591" y2="71.1868">
			<stop  offset="0" style="stop-color:#1D71B8"/>
			<stop  offset="0.9988" style="stop-color:#36A9E1"/>
		</linearGradient>
		<path style="fill:url(#SVGID_00000146482450196227218350000014837975791454537637_);" d="M244.83,130.91h-3.72l-4.23-14.9
			c-0.37-1.44-0.65-2.72-0.82-3.83h-0.03c-0.12,0.94-0.38,2.22-0.78,3.83l-4.13,14.9h-3.61l-5.85-22.14h3.22l3.73,14.44
			c0.34,1.28,0.64,2.7,0.88,4.26h0.05c0.22-1.44,0.52-2.81,0.88-4.1l4.1-14.6h3.41l4.23,14.69c0.37,1.34,0.67,2.65,0.88,3.94h0.03
			c0.23-1.31,0.49-2.52,0.75-3.6l3.85-15.03h2.98L244.83,130.91z"/>
		
			<linearGradient id="SVGID_00000136370445185330003400000001937414982450936223_" gradientUnits="userSpaceOnUse" x1="256.0736" y1="372.4976" x2="256.0736" y2="71.1868">
			<stop  offset="0" style="stop-color:#1D71B8"/>
			<stop  offset="0.9988" style="stop-color:#36A9E1"/>
		</linearGradient>
		<path style="fill:url(#SVGID_00000136370445185330003400000001937414982450936223_);" d="M254.57,130.91v-22.14h3.01v22.14H254.57
			z"/>
		
			<linearGradient id="SVGID_00000108298874005078375180000014455808130827351740_" gradientUnits="userSpaceOnUse" x1="268.8349" y1="372.4976" x2="268.8349" y2="71.1868">
			<stop  offset="0" style="stop-color:#1D71B8"/>
			<stop  offset="0.9988" style="stop-color:#36A9E1"/>
		</linearGradient>
		<path style="fill:url(#SVGID_00000108298874005078375180000014455808130827351740_);" d="M270.33,111.28v19.63h-3.03v-19.63h-6.36
			v-2.51h15.78v2.51H270.33z"/>
		
			<linearGradient id="SVGID_00000002373521774786075890000002743807267868590234_" gradientUnits="userSpaceOnUse" x1="285.8331" y1="372.4976" x2="285.8331" y2="71.1868">
			<stop  offset="0" style="stop-color:#1D71B8"/>
			<stop  offset="0.9988" style="stop-color:#36A9E1"/>
		</linearGradient>
		<path style="fill:url(#SVGID_00000002373521774786075890000002743807267868590234_);" d="M290.22,129.29
			c-1.51,1.27-3.49,1.91-5.96,1.91c-1.78,0-3.4-0.2-4.85-0.61l0.37-2.9c1.5,0.6,3.05,0.9,4.66,0.9c1.39,0,2.5-0.29,3.35-0.87
			c0.96-0.66,1.44-1.63,1.44-2.92c0-1.09-0.52-1.99-1.57-2.69c-0.46-0.3-1.61-0.82-3.44-1.57c-1.58-0.64-2.72-1.29-3.43-1.95
			c-1.05-0.99-1.57-2.28-1.57-3.86c0-1.87,0.67-3.36,2-4.49c1.39-1.19,3.3-1.78,5.74-1.78c1.47,0,2.81,0.14,4.01,0.43l-0.35,2.66
			c-1.29-0.39-2.56-0.59-3.81-0.59c-2.97,0-4.45,1.15-4.45,3.44c0,1.04,0.52,1.9,1.57,2.6c0.45,0.29,1.61,0.82,3.49,1.59
			c1.6,0.65,2.77,1.31,3.49,1.99c1.05,0.99,1.57,2.27,1.57,3.83C292.46,126.41,291.71,128.04,290.22,129.29z"/>
		
			<linearGradient id="SVGID_00000180367497984006309810000008328342593693816985_" gradientUnits="userSpaceOnUse" x1="310.3037" y1="372.4976" x2="310.3037" y2="71.1868">
			<stop  offset="0" style="stop-color:#1D71B8"/>
			<stop  offset="0.9988" style="stop-color:#36A9E1"/>
		</linearGradient>
		<path style="fill:url(#SVGID_00000180367497984006309810000008328342593693816985_);" d="M311.55,115.61
			c-0.35-0.34-0.77-0.52-1.27-0.52c-0.49,0-0.91,0.17-1.25,0.53c-0.35,0.36-0.53,0.78-0.53,1.28c0,0.49,0.18,0.91,0.53,1.25
			c0.34,0.34,0.76,0.51,1.25,0.51c0.5,0,0.92-0.17,1.27-0.51c0.36-0.36,0.54-0.77,0.54-1.25
			C312.1,116.4,311.92,115.96,311.55,115.61z"/>
		
			<linearGradient id="SVGID_00000139272628972956029330000009765477568715720868_" gradientUnits="userSpaceOnUse" x1="320.7855" y1="372.4976" x2="320.7855" y2="71.1868">
			<stop  offset="0" style="stop-color:#1D71B8"/>
			<stop  offset="0.9988" style="stop-color:#36A9E1"/>
		</linearGradient>
		<path style="fill:url(#SVGID_00000139272628972956029330000009765477568715720868_);" d="M332.4,115.13c-2.6,0-4.65,0.8-6.14,2.4
			c-1.37,1.48-2.07,3.35-2.07,5.61c0,2.67,0.81,4.51,2.43,5.54c-0.51-0.11-1.15-0.17-1.9-0.17h-5.73v-13.02h-3.03v13.95
			c0,4.45-1.78,6.67-5.35,6.67c-1.52,0-2.76-0.48-3.68-1.42c-1.17-1.2-1.76-3.08-1.76-5.64c0-2.23,0.31-4.4,0.93-6.53l-3.13,0.6
			c-0.55,2.01-0.82,4.08-0.82,6.23c0,3.17,0.79,5.54,2.39,7.1c1.39,1.37,3.33,2.05,5.78,2.05c5.22,0,8.07-2.52,8.56-7.58h20.54
			v-8.42C339.42,117.58,337.08,115.13,332.4,115.13z M336.47,128.51h-3.25c-3.98,0-5.98-1.85-5.98-5.55c0-1.66,0.44-2.97,1.31-3.94
			c0.88-1.01,2.07-1.51,3.59-1.51c2.88,0,4.33,1.82,4.33,5.48V128.51z"/>
		
			<linearGradient id="SVGID_00000083079939170465899990000007343815450980889762_" gradientUnits="userSpaceOnUse" x1="360.8699" y1="372.4976" x2="360.8699" y2="71.1868">
			<stop  offset="0" style="stop-color:#1D71B8"/>
			<stop  offset="0.9988" style="stop-color:#36A9E1"/>
		</linearGradient>
		<path style="fill:url(#SVGID_00000083079939170465899990000007343815450980889762_);" d="M362.15,130.91
			c-4.06,0-7.02-0.81-8.88-2.44c-1.76-1.54-2.64-3.91-2.64-7.11c0-2.07,0.36-3.89,1.09-5.45l3.2-0.56c-0.83,1.7-1.25,3.58-1.25,5.66
			c0,2.61,0.61,4.48,1.84,5.62c1.36,1.25,3.69,1.87,6.99,1.87h5.59v-13.03h3.01v15.43H362.15z M358.11,111.97
			c-0.33-0.34-0.5-0.77-0.5-1.28c0-0.47,0.17-0.88,0.5-1.22c0.34-0.34,0.76-0.51,1.25-0.51c0.48,0,0.89,0.17,1.22,0.5
			c0.34,0.34,0.51,0.75,0.51,1.23c0,0.49-0.17,0.91-0.51,1.27c-0.34,0.34-0.75,0.51-1.22,0.51
			C358.87,112.47,358.46,112.3,358.11,111.97z M362.97,111.97c-0.35-0.34-0.53-0.77-0.53-1.28c0-0.47,0.18-0.88,0.53-1.22
			c0.34-0.34,0.76-0.51,1.25-0.51c0.48,0,0.88,0.17,1.2,0.5c0.33,0.34,0.5,0.75,0.5,1.23c0,0.5-0.17,0.92-0.5,1.27
			c-0.33,0.34-0.73,0.51-1.2,0.51C363.72,112.47,363.3,112.3,362.97,111.97z"/>
		
			<linearGradient id="SVGID_00000023243106657750310390000005355733164465057945_" gradientUnits="userSpaceOnUse" x1="388.7825" y1="372.4976" x2="388.7825" y2="71.1868">
			<stop  offset="0" style="stop-color:#1D71B8"/>
			<stop  offset="0.9988" style="stop-color:#36A9E1"/>
		</linearGradient>
		<path style="fill:url(#SVGID_00000023243106657750310390000005355733164465057945_);" d="M400.48,128.51v2.4h-23.39v-23.14h3.01
			v20.74h9.45c-2.33-1.05-3.51-2.98-3.51-5.8c0-2.17,0.67-3.94,2.02-5.32c1.46-1.51,3.49-2.26,6.09-2.26c1.53,0,2.95,0.24,4.26,0.72
			l-0.56,2.43c-1.2-0.54-2.49-0.8-3.9-0.8c-1.46,0-2.64,0.46-3.52,1.36c-0.91,0.92-1.36,2.17-1.36,3.74c0,1.77,0.68,3.18,2.05,4.21
			c1.52,1.15,3.74,1.72,6.67,1.72H400.48z"/>
		
			<linearGradient id="SVGID_00000039819827735268742880000007405026204939075775_" gradientUnits="userSpaceOnUse" x1="410.4725" y1="372.4976" x2="410.4725" y2="71.1868">
			<stop  offset="0" style="stop-color:#1D71B8"/>
			<stop  offset="0.9988" style="stop-color:#36A9E1"/>
		</linearGradient>
		<path style="fill:url(#SVGID_00000039819827735268742880000007405026204939075775_);" d="M403.71,128.51h10.53
			c-0.04-3.02-0.7-5.4-1.99-7.15c-1.3-1.76-3.4-3.09-6.28-3.97l0.75-2.56c3.64,1.13,6.29,2.79,7.93,4.97
			c1.72,2.29,2.58,5.45,2.58,9.48v1.63h-13.52V128.51z"/>
		
			<linearGradient id="SVGID_00000114771216283477934660000014537516321458867130_" gradientUnits="userSpaceOnUse" x1="444.1652" y1="372.4976" x2="444.1652" y2="71.1868">
			<stop  offset="0" style="stop-color:#1D71B8"/>
			<stop  offset="0.9988" style="stop-color:#36A9E1"/>
		</linearGradient>
		<path style="fill:url(#SVGID_00000114771216283477934660000014537516321458867130_);" d="M447.84,109.46
			c-0.34-0.33-0.74-0.5-1.22-0.5c-0.49,0-0.91,0.17-1.25,0.52c-0.36,0.34-0.53,0.74-0.53,1.21c0,0.52,0.17,0.94,0.53,1.28
			c0.34,0.34,0.76,0.5,1.25,0.5c0.48,0,0.89-0.17,1.22-0.51c0.32-0.34,0.48-0.76,0.48-1.27
			C448.31,110.21,448.15,109.8,447.84,109.46z M442.98,109.46c-0.34-0.33-0.74-0.5-1.22-0.5c-0.49,0-0.9,0.17-1.23,0.52
			c-0.34,0.34-0.51,0.74-0.51,1.21c0,0.52,0.17,0.94,0.51,1.28c0.34,0.34,0.74,0.5,1.23,0.5c0.48,0,0.89-0.17,1.22-0.51
			c0.34-0.36,0.51-0.77,0.51-1.27C443.49,110.21,443.32,109.8,442.98,109.46z"/>
		
			<linearGradient id="SVGID_00000123436199015656329540000006184803187593455013_" gradientUnits="userSpaceOnUse" x1="478.1956" y1="372.4976" x2="478.1956" y2="211.3928">
			<stop  offset="0" style="stop-color:#1D71B8"/>
			<stop  offset="0.9988" style="stop-color:#36A9E1"/>
		</linearGradient>
		<path style="fill:url(#SVGID_00000123436199015656329540000006184803187593455013_);" d="M477.89,130.91h0.6v-0.02
			C478.3,130.9,478.1,130.91,477.89,130.91z"/>
		
			<linearGradient id="SVGID_00000031208294245227170590000005830545431327607986_" gradientUnits="userSpaceOnUse" x1="463.432" y1="372.4976" x2="463.432" y2="71.1868">
			<stop  offset="0" style="stop-color:#1D71B8"/>
			<stop  offset="0.9988" style="stop-color:#36A9E1"/>
		</linearGradient>
		<path style="fill:url(#SVGID_00000031208294245227170590000005830545431327607986_);" d="M503.46,107.77v20.74h-6.81v-6.02
			c0-4.9-2.34-7.36-7.01-7.36c-2.61,0-4.66,0.8-6.16,2.4c-1.37,1.48-2.05,3.35-2.05,5.61c0,2.05-0.38,3.49-1.13,4.33
			c-0.62,0.69-1.59,1.04-2.92,1.04h-2.49c0.15-1.87,0.22-3.48,0.22-4.82c0-3.4-0.4-6.5-1.19-9.31l-2.91,0.52
			c0.72,2.77,1.09,5.79,1.09,9.05c0,1.54-0.09,3.06-0.27,4.55h-1.08c-1.86,0-3.11-0.23-3.73-0.67c-0.7-0.53-1.06-1.62-1.06-3.29
			v-8.42h-2.93v7.32c0,3.53-1.13,5.29-3.38,5.29c-1.2,0-1.99-0.47-2.35-1.39c-0.27-0.66-0.4-1.97-0.4-3.93v-5.98h-3.01v6.57
			c0,1.69-0.27,2.87-0.8,3.54c-0.5,0.63-1.36,0.95-2.58,0.95h-4.3v-13.02h-3.01v13.02h-7.95v-12.23c-2-0.77-4.2-1.15-6.6-1.15
			c-2.67,0-4.75,0.81-6.23,2.43c-1.36,1.49-2.04,3.39-2.04,5.71c0,5.09,2.87,7.64,8.6,7.64h3.3v0.78c0,3.42-2.09,5.13-6.26,5.13
			c-1.66,0-3.4-0.21-5.24-0.62l-0.21,2.51c1.73,0.33,3.44,0.5,5.12,0.5c3.27,0,5.74-0.8,7.42-2.41c1.41-1.35,2.13-3.11,2.13-5.27
			v-0.62h15.26c2.29,0,3.76-0.87,4.39-2.6c0.52,1.88,1.94,2.82,4.25,2.82c2.58,0,4.22-0.95,4.96-2.86c0.47,1.02,1.2,1.71,2.19,2.09
			c0.95,0.36,2.47,0.54,4.57,0.54h7.03c0.21,0,0.41-0.01,0.6-0.02c2.4-0.14,3.87-1.17,4.41-3.07c1.24,2.06,3.77,3.09,7.58,3.09
			h15.99v-23.14H503.46z M432.29,128.51h-2.88c-3.98,0-5.98-1.86-5.98-5.58c0-1.63,0.44-2.94,1.31-3.92
			c0.88-0.99,2.07-1.49,3.59-1.49c1.57,0,2.89,0.25,3.96,0.77V128.51z M493.71,128.51h-3.25c-3.99,0-5.98-1.85-5.98-5.55
			c0-1.66,0.44-2.97,1.31-3.94c0.88-1.01,2.07-1.51,3.59-1.51c2.88,0,4.33,1.82,4.33,5.48V128.51z"/>
		
			<linearGradient id="SVGID_00000103969777773152908080000003711267901101014429_" gradientUnits="userSpaceOnUse" x1="514.1955" y1="372.4976" x2="514.1955" y2="71.1868">
			<stop  offset="0" style="stop-color:#1D71B8"/>
			<stop  offset="0.9988" style="stop-color:#36A9E1"/>
		</linearGradient>
		<path style="fill:url(#SVGID_00000103969777773152908080000003711267901101014429_);" d="M512.69,107.77h3.01v23.13h-3.01V107.77z
			"/>
	</g>
</g>
</svg>
