<svg id="Icon_Add" data-name="Icon Add" xmlns="http://www.w3.org/2000/svg" width="60" height="60" viewBox="0 0 60 60">
  <path id="Path_20" data-name="Path 20" d="M30,0A30,30,0,1,1,0,30,30,30,0,0,1,30,0Z" fill="#1178ba"/>
  <g id="Group_12" data-name="Group 12" transform="translate(14.975 14.975)">
    <path id="Path_18" data-name="Path 18" d="M29.777,14.244,15.358.257a.784.784,0,0,0-1.114,0L.257,14.677a.784.784,0,0,0,0,1.114l14.42,13.987a.922.922,0,0,0,.557.248.672.672,0,0,0,.557-.248l13.987-14.42a.922.922,0,0,0,.248-.557A.6.6,0,0,0,29.777,14.244ZM15.234,28.168,1.866,15.234,14.8,1.866,28.168,14.8Z" fill="#fff"/>
    <path id="Path_19" data-name="Path 19" d="M19.57,14.743V18.57H15.743a.753.753,0,0,0-.743.743.8.8,0,0,0,.743.743H19.57v3.765a.753.753,0,0,0,.743.743.8.8,0,0,0,.743-.743V20.055h3.765a.753.753,0,0,0,.743-.743.7.7,0,0,0-.681-.743H21.117V14.743A.753.753,0,0,0,20.374,14,.86.86,0,0,0,19.57,14.743Z" transform="translate(-5.326 -4.945)" fill="#fff"/>
  </g>
</svg>
