<svg id="Component_6_1" data-name="Component 6 – 1" xmlns="http://www.w3.org/2000/svg" xmlns:xlink="http://www.w3.org/1999/xlink" width="17.486" height="20.031" viewBox="0 0 17.486 20.031">
  <defs>
    <clipPath id="clip-path">
      <rect id="Rectangle_111" data-name="Rectangle 111" width="17.486" height="20.031" fill="#1178ba" stroke="#1178ba" stroke-width="1"/>
    </clipPath>
  </defs>
  <g id="Group_87" data-name="Group 87" clip-path="url(#clip-path)">
    <path id="Path_138" data-name="Path 138" d="M0,10Q0,6.47,0,2.937A2.95,2.95,0,0,1,.43,1.3,2.689,2.689,0,0,1,2.644,0c.077,0,.153,0,.23,0Q8.748,0,14.621,0A2.77,2.77,0,0,1,17.482,2.87c.008.713,0,1.425,0,2.138q0,3.846,0,7.693A7.239,7.239,0,0,1,16.3,16.785a6.934,6.934,0,0,1-4.776,3.142,6.814,6.814,0,0,1-1.119.1q-3.813.013-7.626,0a2.667,2.667,0,0,1-2.117-.981A2.866,2.866,0,0,1,0,17.122Q0,13.563,0,10m1.1,0q0,3.337,0,6.673c0,.209,0,.417,0,.626a1.6,1.6,0,0,0,.647,1.271,1.712,1.712,0,0,0,1.1.345q2.725,0,5.449,0c.665,0,1.33,0,2,0a1.652,1.652,0,0,0,1.332-.6,1.812,1.812,0,0,0,.39-1.13,2.735,2.735,0,0,1,1.394-2.366,2.826,2.826,0,0,1,1.422-.365,1.611,1.611,0,0,0,1.48-1.225,2.751,2.751,0,0,0,.058-.619q.005-4.823,0-9.645c0-.1,0-.191,0-.287a1.609,1.609,0,0,0-.6-1.192,1.722,1.722,0,0,0-1.166-.383q-5.871,0-11.743,0c-.051,0-.1,0-.153,0A1.637,1.637,0,0,0,1.148,2.4a2.415,2.415,0,0,0-.042.543q0,3.532,0,7.064m11.818,8.329c.066-.031.121-.054.174-.082a6.1,6.1,0,0,0,2.678-2.773.386.386,0,0,0,.018-.071c-.031,0-.066-.019-.092-.009a3.374,3.374,0,0,1-1.1.19,1.087,1.087,0,0,0-.227.034,1.635,1.635,0,0,0-1.258,1.523,3.746,3.746,0,0,1-.2,1.121c-.007.017,0,.04.005.067" transform="translate(0 0)" fill="#1178ba" stroke="#1178ba" stroke-width="1"/>
    <path id="Path_139" data-name="Path 139" d="M89.977,106.8h3.607c.085,0,.171,0,.256,0a.519.519,0,0,1,.5.526.544.544,0,0,1-.458.569,1.32,1.32,0,0,1-.2.007H86.281a1.326,1.326,0,0,1-.2-.007.544.544,0,0,1-.458-.569.519.519,0,0,1,.5-.526c.085-.007.17,0,.256,0h3.607" transform="translate(-81.235 -101.226)" fill="#1178ba" stroke="#1178ba" stroke-width="1"/>
    <path id="Path_140" data-name="Path 140" d="M89.986,170.789h3.607c.077,0,.154,0,.23,0a.522.522,0,0,1,.51.539.541.541,0,0,1-.5.561,2.038,2.038,0,0,1-.2,0H86.317c-.068,0-.137,0-.2,0a.541.541,0,0,1-.5-.559.522.522,0,0,1,.508-.541c.076-.005.153,0,.23,0h3.632" transform="translate(-81.232 -161.88)" fill="#1178ba" stroke="#1178ba" stroke-width="1"/>
    <path id="Path_141" data-name="Path 141" d="M88.877,234.777h2.529c.077,0,.153,0,.23,0a.549.549,0,0,1,.525.534.561.561,0,0,1-.5.566,1.538,1.538,0,0,1-.179,0H86.274a1.424,1.424,0,0,1-.179,0,.543.543,0,0,1-.478-.576.52.52,0,0,1,.5-.521c.076-.006.153,0,.23,0h2.529" transform="translate(-81.235 -222.53)" fill="#1178ba" stroke="#1178ba" stroke-width="1"/>
  </g>
</svg>
