<svg id="Component_7_1" data-name="Component 7 – 1" xmlns="http://www.w3.org/2000/svg" xmlns:xlink="http://www.w3.org/1999/xlink" width="16.618" height="20.243" viewBox="0 0 16.618 20.243">
  <defs>
    <clipPath id="clip-path">
      <rect id="Rectangle_112" data-name="Rectangle 112" width="16.618" height="20.243" fill="#1178ba"/>
    </clipPath>
  </defs>
  <g id="Group_88" data-name="Group 88" clip-path="url(#clip-path)">
    <path id="Path_142" data-name="Path 142" d="M104,299.375a.841.841,0,0,0-.106-.038,2.066,2.066,0,0,1-1.422-1.029,1.83,1.83,0,0,1-.26-.879c0-.126,0-.13.131-.135.046,0,.092,0,.138,0h3.592c.046,0,.092,0,.138,0,.13,0,.133.008.131.135a1.857,1.857,0,0,1-.374,1.062,2.024,2.024,0,0,1-1.367.853c-.017,0-.032.02-.048.03Z" transform="translate(-95.962 -279.132)" fill="#1178ba"/>
    <path id="Path_143" data-name="Path 143" d="M8.311,17.123H.246c-.278,0-.238.037-.241-.239,0-.191.009-.383,0-.573a.448.448,0,0,1,.153-.38c.6-.586,1.184-1.183,1.781-1.77a.438.438,0,0,0,.144-.345q-.008-2.164,0-4.329c0-.421,0-.844.027-1.264A7.036,7.036,0,0,1,3.3,4.614a5.6,5.6,0,0,1,3.12-2.258c.106-.031.21-.071.315-.107.007-.117.017-.233.021-.35.005-.151,0-.3.01-.454A1.542,1.542,0,0,1,9.028.181a1.476,1.476,0,0,1,.827,1.3c.011.217.01.435.005.652,0,.1.034.138.128.162a5.836,5.836,0,0,1,1.251.475,5.588,5.588,0,0,1,1.493,1.122,6.474,6.474,0,0,1,1.583,3,6.747,6.747,0,0,1,.206,1.543q.015,2.668.018,5.337a.526.526,0,0,0,.171.413c.6.586,1.185,1.182,1.78,1.77a.382.382,0,0,1,.127.311c-.009.25,0,.5,0,.751,0,.075-.024.11-.1.1-.052,0-.105,0-.158,0H8.311" transform="translate(0 0.001)" fill="#1178ba"/>
  </g>
</svg>
