<svg id="Component_4_2" data-name="Component 4 – 2" xmlns="http://www.w3.org/2000/svg" xmlns:xlink="http://www.w3.org/1999/xlink" width="23.852" height="23.818" viewBox="0 0 23.852 23.818">
  <defs>
    <clipPath id="clip-path">
      <rect id="Rectangle_109" data-name="Rectangle 109" width="23.852" height="23.818" fill="#1178ba"/>
    </clipPath>
  </defs>
  <g id="Group_85" data-name="Group 85" clip-path="url(#clip-path)">
    <path id="Path_124" data-name="Path 124" d="M112.987,11.92A12.007,12.007,0,0,1,103.6,23.554c-.372.082-.755.114-1.133.171-.194.029-.272-.061-.272-.246,0-.574.012-1.149-.007-1.723-.009-.275.119-.346.357-.409a14.358,14.358,0,0,0,2.25-.668,9.347,9.347,0,0,0,5.726-7.705A9.541,9.541,0,0,0,102.942,2.5c-.747-.149-.746-.152-.746-.9,0-.447.006-.893,0-1.34,0-.227.081-.285.307-.255a11.657,11.657,0,0,1,4.1,1.305,11.757,11.757,0,0,1,6.155,8.455c.136.706.155,1.434.228,2.152" transform="translate(-89.135 0)" fill="#1178ba"/>
    <path id="Path_125" data-name="Path 125" d="M61.445,62.277a2.1,2.1,0,0,1-.148.185c-.314.318-.631.633-.947.949l-5.506,5.507a3.3,3.3,0,0,0-.269.272c-.149.189-.26.132-.405-.015-.883-.893-1.773-1.778-2.661-2.665-.256-.256-.507-.516-.769-.766-.118-.113-.123-.2,0-.311.307-.295.612-.592.9-.9.156-.167.265-.15.416,0,.582.592,1.173,1.175,1.759,1.762s.572.574,1.141,0l4.83-4.83a3.459,3.459,0,0,1,.321-.31c.051-.039.177-.065.208-.035.369.353.726.717,1.086,1.08a.5.5,0,0,1,.046.071" transform="translate(-44.178 -53.306)" fill="#1178ba"/>
    <path id="Path_126" data-name="Path 126" d="M40.517,1.512c0,.212,0,.425,0,.637-.006.648.035.509-.54.63a9.874,9.874,0,0,0-3.759,1.64c-.366.261-.372.259-.669-.043q-.558-.568-1.106-1.146c-.282-.3-.281-.308.067-.573A11.361,11.361,0,0,1,38.66.648C39.172.519,39.7.459,40.22.356c.233-.046.3.047.3.264-.008.3,0,.595,0,.892" transform="translate(-29.866 -0.301)" fill="#1178ba"/>
    <path id="Path_127" data-name="Path 127" d="M1.109,41.172H.918c-1.019,0-1.013,0-.811-1.039a11.686,11.686,0,0,1,2.088-4.805,1.931,1.931,0,0,1,.276-.348.272.272,0,0,1,.263-.01c.491.472.971.954,1.447,1.441.157.161-.022.274-.1.38a8.638,8.638,0,0,0-1.2,2.238,15.958,15.958,0,0,0-.5,1.838c-.054.245-.148.315-.374.307-.3-.01-.6,0-.893,0" transform="translate(0 -30.477)" fill="#1178ba"/>
    <path id="Path_128" data-name="Path 128" d="M1.276,102.425l1.073.064c.083.324.167.648.248.972a9.667,9.667,0,0,0,1.5,3.279c.285.4.291.34-.035.668-.389.392-.782.78-1.168,1.175-.145.148-.254.188-.4-.009A11.759,11.759,0,0,1,.1,102.829c-.047-.37-.032-.375.35-.383.276-.006.552,0,.829,0v-.019" transform="translate(-0.068 -89.34)" fill="#1178ba"/>
    <path id="Path_129" data-name="Path 129" d="M40.529,156.78c0,.021,0,.043,0,.064q-.042.528-.085,1.056c-.335-.042-.674-.06-1-.128a11.9,11.9,0,0,1-4.921-2.248c-.344-.266-.347-.276-.053-.567.361-.358.745-.694,1.1-1.06a.411.411,0,0,1,.644-.042,9.34,9.34,0,0,0,3.51,1.57c.246.055.612.036.707.186a1.994,1.994,0,0,1,.1.851c.008.106,0,.212,0,.318" transform="translate(-29.877 -134.082)" fill="#1178ba"/>
  </g>
</svg>
