<svg id="Component_5_1" data-name="Component 5 – 1" xmlns="http://www.w3.org/2000/svg" xmlns:xlink="http://www.w3.org/1999/xlink" width="23.699" height="24" viewBox="0 0 23.699 24">
  <defs>
    <clipPath id="clip-path">
      <rect id="Rectangle_110" data-name="Rectangle 110" width="23.699" height="24" fill="#1178ba"/>
    </clipPath>
  </defs>
  <g id="Group_86" data-name="Group 86" clip-path="url(#clip-path)">
    <path id="Path_130" data-name="Path 130" d="M40.577,1.18c0,.214,0,.429,0,.643-.006.654.036.514-.545.636a9.967,9.967,0,0,0-3.794,1.656c-.369.263-.376.261-.675-.044Q35,3.5,34.446,2.913c-.285-.3-.284-.311.068-.579A11.469,11.469,0,0,1,38.7.307c.517-.13,1.051-.191,1.575-.295.235-.046.308.047.3.267-.008.3,0,.6,0,.9" transform="translate(-29.825 -0.001)" fill="#1178ba"/>
    <path id="Path_131" data-name="Path 131" d="M1.12,40.887H.927c-1.029,0-1.023,0-.819-1.049a11.8,11.8,0,0,1,2.107-4.851,1.941,1.941,0,0,1,.279-.351.274.274,0,0,1,.265-.01c.5.476.98.963,1.46,1.454.159.162-.022.277-.1.383a8.721,8.721,0,0,0-1.213,2.259A16.118,16.118,0,0,0,2.4,40.579c-.054.247-.15.318-.377.31-.3-.01-.6,0-.9,0" transform="translate(0 -30.135)" fill="#1178ba"/>
    <path id="Path_132" data-name="Path 132" d="M1.287,102.081l1.083.064c.084.327.169.654.25.982a9.759,9.759,0,0,0,1.51,3.31c.288.407.294.344-.035.674-.393.4-.789.788-1.179,1.186-.146.15-.256.19-.408-.01a11.871,11.871,0,0,1-2.412-5.8c-.047-.373-.032-.379.353-.387.279-.006.558,0,.836,0v-.019" transform="translate(-0.067 -88.917)" fill="#1178ba"/>
    <path id="Path_133" data-name="Path 133" d="M40.588,156.465c0,.021,0,.043,0,.064q-.042.533-.086,1.066c-.338-.042-.68-.061-1.013-.13a12.012,12.012,0,0,1-4.968-2.27c-.348-.268-.351-.278-.054-.572.365-.361.752-.7,1.108-1.07a.415.415,0,0,1,.65-.042A9.428,9.428,0,0,0,39.77,155.1c.248.056.618.036.714.188a2.013,2.013,0,0,1,.1.859c.008.107,0,.214,0,.321" transform="translate(-29.836 -133.596)" fill="#1178ba"/>
    <path id="Path_134" data-name="Path 134" d="M100.378,1.18c0,.214,0,.429,0,.643.006.654-.036.514.545.636a9.967,9.967,0,0,1,3.794,1.656c.369.263.376.261.675-.044q.563-.574,1.116-1.157c.285-.3.284-.311-.068-.579A11.469,11.469,0,0,0,102.253.307c-.517-.13-1.051-.191-1.575-.295-.235-.046-.308.047-.3.267.008.3,0,.6,0,.9" transform="translate(-87.432 -0.001)" fill="#1178ba"/>
    <path id="Path_135" data-name="Path 135" d="M153.718,40.887h.193c1.029,0,1.023,0,.819-1.049a11.8,11.8,0,0,0-2.107-4.851,1.941,1.941,0,0,0-.279-.351.274.274,0,0,0-.265-.01c-.5.476-.98.963-1.46,1.454-.159.162.022.277.1.383a8.721,8.721,0,0,1,1.213,2.259,16.118,16.118,0,0,1,.508,1.856c.054.247.15.318.377.31.3-.01.6,0,.9,0" transform="translate(-131.139 -30.135)" fill="#1178ba"/>
    <path id="Path_136" data-name="Path 136" d="M153.659,102.081l-1.083.064c-.084.327-.169.654-.25.982a9.759,9.759,0,0,1-1.51,3.31c-.288.407-.294.344.035.674.393.4.789.788,1.179,1.186.146.15.256.19.408-.01a11.871,11.871,0,0,0,2.412-5.8c.047-.373.033-.379-.353-.387-.279-.006-.558,0-.836,0v-.019" transform="translate(-131.18 -88.917)" fill="#1178ba"/>
    <path id="Path_137" data-name="Path 137" d="M100.374,156.465c0,.021,0,.043,0,.064q.042.533.085,1.066c.338-.042.68-.061,1.013-.13a12.012,12.012,0,0,0,4.968-2.27c.348-.268.351-.278.054-.572-.365-.361-.752-.7-1.108-1.07a.415.415,0,0,0-.65-.042,9.429,9.429,0,0,1-3.543,1.585c-.248.056-.618.036-.714.188a2.013,2.013,0,0,0-.1.859c-.008.107,0,.214,0,.321" transform="translate(-87.427 -133.596)" fill="#1178ba"/>
  </g>
</svg>
