<svg xmlns="http://www.w3.org/2000/svg" xmlns:xlink="http://www.w3.org/1999/xlink" width="20" height="19" viewBox="0 0 20 19">
  <defs>
    <clipPath id="clip-path">
      <rect width="20" height="19" fill="none"/>
    </clipPath>
  </defs>
  <g id="Icon_Comment_Active" data-name="Icon Comment Active" clip-path="url(#clip-path)">
    <path id="Path_102" data-name="Path 102" d="M19,0H1A.945.945,0,0,0,0,1V13a.945.945,0,0,0,1,1H8.6c2.1,2,4.3,4.1,4.7,4.6a.909.909,0,0,0,.8.4.875.875,0,0,0,.9-.6.9.9,0,0,0,.1-.5V14H19a.945.945,0,0,0,1-1V1A.945.945,0,0,0,19,0Z" fill="#1178ba"/>
  </g>
</svg>
