<?xml version="1.0" encoding="utf-8"?>
<!-- Generator: Adobe Illustrator 26.5.0, SVG Export Plug-In . SVG Version: 6.00 Build 0)  -->
<svg version="1.1" id="Layer_1" xmlns="http://www.w3.org/2000/svg" xmlns:xlink="http://www.w3.org/1999/xlink" x="0px" y="0px"
	 viewBox="0 0 2396.32 2140.64" style="enable-background:new 0 0 2396.32 2140.64;" xml:space="preserve">
<style type="text/css">
	.st0{clip-path:url(#SVGID_00000003786538351520075920000008125744814215884419_);}
	.st1{fill:#39B5E5;}
	.st2{fill:#1DA2D6;}
	.st3{fill:#36A9E1;}
	
		.st4{opacity:0.79;clip-path:url(#SVGID_00000003786538351520075920000008125744814215884419_);fill:url(#SVGID_00000101064794552181665580000018319984842930586532_);}
	.st5{fill:#0478BA;}
	.st6{fill:#FFFFFF;}
</style>
<g>
	<g>
		<defs>
			<rect id="SVGID_1_" width="2396.32" height="2140.64"/>
		</defs>
		<clipPath id="SVGID_00000058553390797640266220000002931246765142120096_">
			<use xlink:href="#SVGID_1_"  style="overflow:visible;"/>
		</clipPath>
		<g style="clip-path:url(#SVGID_00000058553390797640266220000002931246765142120096_);">
			<polygon class="st1" points="-62.97,-50.41 101.08,-50.41 19.06,102.26 -144.99,102.26 			"/>
			<polygon class="st2" points="183.11,102.26 101.08,254.92 19.06,102.26 101.08,-50.41 			"/>
			<polygon class="st3" points="-144.99,102.26 -62.97,254.92 101.08,254.92 19.06,102.26 			"/>
			<polygon class="st1" points="-62.97,254.92 101.08,254.92 19.06,407.59 -144.99,407.59 			"/>
			<polygon class="st2" points="183.11,407.59 101.08,560.25 19.06,407.59 101.08,254.92 			"/>
			<polygon class="st3" points="-144.99,407.59 -62.97,560.25 101.08,560.25 19.06,407.59 			"/>
			<polygon class="st1" points="-62.97,560.25 101.08,560.25 19.06,712.92 -144.99,712.92 			"/>
			<polygon class="st2" points="183.11,712.92 101.08,865.59 19.06,712.92 101.08,560.25 			"/>
			<polygon class="st3" points="-144.99,712.92 -62.97,865.59 101.08,865.59 19.06,712.92 			"/>
			<polygon class="st1" points="-62.97,865.59 101.08,865.59 19.06,1018.25 -144.99,1018.25 			"/>
			<polygon class="st2" points="183.11,1018.25 101.08,1170.92 19.06,1018.25 101.08,865.59 			"/>
			<polygon class="st3" points="-144.99,1018.25 -62.97,1170.92 101.08,1170.92 19.06,1018.25 			"/>
			<polygon class="st1" points="-62.97,1170.92 101.08,1170.92 19.06,1323.59 -144.99,1323.59 			"/>
			<polygon class="st2" points="183.11,1323.59 101.08,1476.25 19.06,1323.59 101.08,1170.92 			"/>
			<polygon class="st3" points="-144.99,1323.59 -62.97,1476.25 101.08,1476.25 19.06,1323.59 			"/>
			<polygon class="st1" points="-62.97,1476.25 101.08,1476.25 19.06,1628.92 -144.99,1628.92 			"/>
			<polygon class="st2" points="183.11,1628.92 101.08,1781.58 19.06,1628.92 101.08,1476.25 			"/>
			<polygon class="st3" points="-144.99,1628.92 -62.97,1781.58 101.08,1781.58 19.06,1628.92 			"/>
			<polygon class="st1" points="-62.97,1781.58 101.08,1781.58 19.06,1934.25 -144.99,1934.25 			"/>
			<polygon class="st2" points="183.11,1934.25 101.08,2086.92 19.06,1934.25 101.08,1781.58 			"/>
			<polygon class="st3" points="-144.99,1934.25 -62.97,2086.92 101.08,2086.92 19.06,1934.25 			"/>
			<polygon class="st1" points="-62.97,2086.92 101.08,2086.92 19.06,2239.58 -144.99,2239.58 			"/>
			<polygon class="st2" points="183.11,2239.58 101.08,2392.25 19.06,2239.58 101.08,2086.92 			"/>
			<polygon class="st3" points="-144.99,2239.58 -62.97,2392.25 101.08,2392.25 19.06,2239.58 			"/>
			<polygon class="st1" points="-62.97,2392.25 101.08,2392.25 19.06,2544.92 -144.99,2544.92 			"/>
			<polygon class="st2" points="183.11,2544.92 101.08,2697.58 19.06,2544.92 101.08,2392.25 			"/>
			<polygon class="st3" points="-144.99,2544.92 -62.97,2697.58 101.08,2697.58 19.06,2544.92 			"/>
			<polygon class="st1" points="-62.97,2697.58 101.08,2697.58 19.06,2850.25 -144.99,2850.25 			"/>
			<polygon class="st2" points="183.11,2850.25 101.08,3002.91 19.06,2850.25 101.08,2697.58 			"/>
			<polygon class="st3" points="-144.99,2850.25 -62.97,3002.91 101.08,3002.91 19.06,2850.25 			"/>
			<polygon class="st1" points="183.11,-203.08 347.16,-203.08 265.14,-50.41 101.08,-50.41 			"/>
			<polygon class="st2" points="429.19,-50.41 347.16,102.26 265.14,-50.41 347.16,-203.08 			"/>
			<polygon class="st3" points="101.08,-50.41 183.11,102.26 347.16,102.26 265.14,-50.41 			"/>
			<polygon class="st1" points="183.11,102.26 347.16,102.26 265.14,254.92 101.08,254.92 			"/>
			<polygon class="st2" points="429.19,254.92 347.16,407.59 265.14,254.92 347.16,102.26 			"/>
			<polygon class="st3" points="101.08,254.92 183.11,407.59 347.16,407.59 265.14,254.92 			"/>
			<polygon class="st1" points="183.11,407.59 347.16,407.59 265.14,560.25 101.08,560.25 			"/>
			<polygon class="st2" points="429.19,560.25 347.16,712.92 265.14,560.25 347.16,407.59 			"/>
			<polygon class="st3" points="101.08,560.25 183.11,712.92 347.16,712.92 265.14,560.25 			"/>
			<polygon class="st1" points="183.11,712.92 347.16,712.92 265.14,865.59 101.08,865.59 			"/>
			<polygon class="st2" points="429.19,865.59 347.16,1018.25 265.14,865.59 347.16,712.92 			"/>
			<polygon class="st3" points="101.08,865.59 183.11,1018.25 347.16,1018.25 265.14,865.59 			"/>
			<polygon class="st1" points="183.11,1018.25 347.16,1018.25 265.14,1170.92 101.08,1170.92 			"/>
			<polygon class="st2" points="429.19,1170.92 347.16,1323.59 265.14,1170.92 347.16,1018.25 			"/>
			<polygon class="st3" points="101.08,1170.92 183.11,1323.59 347.16,1323.59 265.14,1170.92 			"/>
			<polygon class="st1" points="183.11,1323.59 347.16,1323.59 265.14,1476.25 101.08,1476.25 			"/>
			<polygon class="st2" points="429.19,1476.25 347.16,1628.92 265.14,1476.25 347.16,1323.59 			"/>
			<polygon class="st3" points="101.08,1476.25 183.11,1628.92 347.16,1628.92 265.14,1476.25 			"/>
			<polygon class="st1" points="183.11,1628.92 347.16,1628.92 265.14,1781.58 101.08,1781.58 			"/>
			<polygon class="st2" points="429.19,1781.58 347.16,1934.25 265.14,1781.58 347.16,1628.92 			"/>
			<polygon class="st3" points="101.08,1781.58 183.11,1934.25 347.16,1934.25 265.14,1781.58 			"/>
			<polygon class="st1" points="183.11,1934.25 347.16,1934.25 265.14,2086.92 101.08,2086.92 			"/>
			<polygon class="st2" points="429.19,2086.92 347.16,2239.58 265.14,2086.92 347.16,1934.25 			"/>
			<polygon class="st3" points="101.08,2086.92 183.11,2239.58 347.16,2239.58 265.14,2086.92 			"/>
			<polygon class="st1" points="183.11,2239.58 347.16,2239.58 265.14,2392.25 101.08,2392.25 			"/>
			<polygon class="st2" points="429.19,2392.25 347.16,2544.92 265.14,2392.25 347.16,2239.58 			"/>
			<polygon class="st3" points="101.08,2392.25 183.11,2544.92 347.16,2544.92 265.14,2392.25 			"/>
			<polygon class="st1" points="183.11,2544.92 347.16,2544.92 265.14,2697.58 101.08,2697.58 			"/>
			<polygon class="st2" points="429.19,2697.58 347.16,2850.25 265.14,2697.58 347.16,2544.92 			"/>
			<polygon class="st3" points="101.08,2697.58 183.11,2850.25 347.16,2850.25 265.14,2697.58 			"/>
			<polygon class="st1" points="429.19,-50.41 593.24,-50.41 511.21,102.26 347.16,102.26 			"/>
			<polygon class="st2" points="675.26,102.26 593.24,254.92 511.21,102.26 593.24,-50.41 			"/>
			<polygon class="st3" points="347.16,102.26 429.19,254.92 593.24,254.92 511.21,102.26 			"/>
			<polygon class="st1" points="429.19,254.92 593.24,254.92 511.21,407.59 347.16,407.59 			"/>
			<polygon class="st2" points="675.26,407.59 593.24,560.25 511.21,407.59 593.24,254.92 			"/>
			<polygon class="st3" points="347.16,407.59 429.19,560.25 593.24,560.25 511.21,407.59 			"/>
			<polygon class="st1" points="429.19,560.25 593.24,560.25 511.21,712.92 347.16,712.92 			"/>
			<polygon class="st2" points="675.26,712.92 593.24,865.59 511.21,712.92 593.24,560.25 			"/>
			<polygon class="st3" points="347.16,712.92 429.19,865.59 593.24,865.59 511.21,712.92 			"/>
			<polygon class="st1" points="429.19,865.59 593.24,865.59 511.21,1018.25 347.16,1018.25 			"/>
			<polygon class="st2" points="675.26,1018.25 593.24,1170.92 511.21,1018.25 593.24,865.59 			"/>
			<polygon class="st3" points="347.16,1018.25 429.19,1170.92 593.24,1170.92 511.21,1018.25 			"/>
			<polygon class="st1" points="429.19,1170.92 593.24,1170.92 511.21,1323.59 347.16,1323.59 			"/>
			<polygon class="st2" points="675.26,1323.59 593.24,1476.25 511.21,1323.59 593.24,1170.92 			"/>
			<polygon class="st3" points="347.16,1323.59 429.19,1476.25 593.24,1476.25 511.21,1323.59 			"/>
			<polygon class="st1" points="429.19,1476.25 593.24,1476.25 511.21,1628.92 347.16,1628.92 			"/>
			<polygon class="st2" points="675.26,1628.92 593.24,1781.58 511.21,1628.92 593.24,1476.25 			"/>
			<polygon class="st3" points="347.16,1628.92 429.19,1781.58 593.24,1781.58 511.21,1628.92 			"/>
			<polygon class="st1" points="429.19,1781.58 593.24,1781.58 511.21,1934.25 347.16,1934.25 			"/>
			<polygon class="st2" points="675.26,1934.25 593.24,2086.92 511.21,1934.25 593.24,1781.58 			"/>
			<polygon class="st3" points="347.16,1934.25 429.19,2086.92 593.24,2086.92 511.21,1934.25 			"/>
			<polygon class="st1" points="429.19,2086.92 593.24,2086.92 511.21,2239.58 347.16,2239.58 			"/>
			<polygon class="st2" points="675.26,2239.58 593.24,2392.25 511.21,2239.58 593.24,2086.92 			"/>
			<polygon class="st3" points="347.16,2239.58 429.19,2392.25 593.24,2392.25 511.21,2239.58 			"/>
			<polygon class="st1" points="429.19,2392.25 593.24,2392.25 511.21,2544.92 347.16,2544.92 			"/>
			<polygon class="st2" points="675.26,2544.92 593.24,2697.58 511.21,2544.92 593.24,2392.25 			"/>
			<polygon class="st3" points="347.16,2544.92 429.19,2697.58 593.24,2697.58 511.21,2544.92 			"/>
			<polygon class="st1" points="429.19,2697.58 593.24,2697.58 511.21,2850.25 347.16,2850.25 			"/>
			<polygon class="st2" points="675.26,2850.25 593.24,3002.91 511.21,2850.25 593.24,2697.58 			"/>
			<polygon class="st3" points="347.16,2850.25 429.19,3002.91 593.24,3002.91 511.21,2850.25 			"/>
			<polygon class="st1" points="675.26,-203.08 839.32,-203.08 757.29,-50.41 593.24,-50.41 			"/>
			<polygon class="st2" points="921.34,-50.41 839.32,102.26 757.29,-50.41 839.32,-203.08 			"/>
			<polygon class="st3" points="593.24,-50.41 675.26,102.26 839.32,102.26 757.29,-50.41 			"/>
			<polygon class="st1" points="675.26,102.26 839.32,102.26 757.29,254.92 593.24,254.92 			"/>
			<polygon class="st2" points="921.34,254.92 839.32,407.59 757.29,254.92 839.32,102.26 			"/>
			<polygon class="st3" points="593.24,254.92 675.26,407.59 839.32,407.59 757.29,254.92 			"/>
			<polygon class="st1" points="675.26,407.59 839.32,407.59 757.29,560.25 593.24,560.25 			"/>
			<polygon class="st2" points="921.34,560.25 839.32,712.92 757.29,560.25 839.32,407.59 			"/>
			<polygon class="st3" points="593.24,560.25 675.26,712.92 839.32,712.92 757.29,560.25 			"/>
			<polygon class="st1" points="675.26,712.92 839.32,712.92 757.29,865.59 593.24,865.59 			"/>
			<polygon class="st2" points="921.34,865.59 839.32,1018.25 757.29,865.59 839.32,712.92 			"/>
			<polygon class="st3" points="593.24,865.59 675.26,1018.25 839.32,1018.25 757.29,865.59 			"/>
			<polygon class="st1" points="675.26,1018.25 839.32,1018.25 757.29,1170.92 593.24,1170.92 			"/>
			<polygon class="st2" points="921.34,1170.92 839.32,1323.59 757.29,1170.92 839.32,1018.25 			"/>
			<polygon class="st3" points="593.24,1170.92 675.26,1323.59 839.32,1323.59 757.29,1170.92 			"/>
			<polygon class="st1" points="675.26,1323.59 839.32,1323.59 757.29,1476.25 593.24,1476.25 			"/>
			<polygon class="st2" points="921.34,1476.25 839.32,1628.92 757.29,1476.25 839.32,1323.59 			"/>
			<polygon class="st3" points="593.24,1476.25 675.26,1628.92 839.32,1628.92 757.29,1476.25 			"/>
			<polygon class="st1" points="675.26,1628.92 839.32,1628.92 757.29,1781.58 593.24,1781.58 			"/>
			<polygon class="st2" points="921.34,1781.58 839.32,1934.25 757.29,1781.58 839.32,1628.92 			"/>
			<polygon class="st3" points="593.24,1781.58 675.26,1934.25 839.32,1934.25 757.29,1781.58 			"/>
			<polygon class="st1" points="675.26,1934.25 839.32,1934.25 757.29,2086.92 593.24,2086.92 			"/>
			<polygon class="st2" points="921.34,2086.92 839.32,2239.58 757.29,2086.92 839.32,1934.25 			"/>
			<polygon class="st3" points="593.24,2086.92 675.26,2239.58 839.32,2239.58 757.29,2086.92 			"/>
			<polygon class="st1" points="675.26,2239.58 839.32,2239.58 757.29,2392.25 593.24,2392.25 			"/>
			<polygon class="st2" points="921.34,2392.25 839.32,2544.92 757.29,2392.25 839.32,2239.58 			"/>
			<polygon class="st3" points="593.24,2392.25 675.26,2544.92 839.32,2544.92 757.29,2392.25 			"/>
			<polygon class="st1" points="675.26,2544.92 839.32,2544.92 757.29,2697.58 593.24,2697.58 			"/>
			<polygon class="st2" points="921.34,2697.58 839.32,2850.25 757.29,2697.58 839.32,2544.92 			"/>
			<polygon class="st3" points="593.24,2697.58 675.26,2850.25 839.32,2850.25 757.29,2697.58 			"/>
			<polygon class="st1" points="921.34,-50.41 1085.39,-50.41 1003.37,102.26 839.32,102.26 			"/>
			<polygon class="st2" points="1167.42,102.26 1085.39,254.92 1003.37,102.26 1085.39,-50.41 			"/>
			<polygon class="st3" points="839.32,102.26 921.34,254.92 1085.39,254.92 1003.37,102.26 			"/>
			<polygon class="st1" points="921.34,254.92 1085.39,254.92 1003.37,407.59 839.32,407.59 			"/>
			<polygon class="st2" points="1167.42,407.59 1085.39,560.25 1003.37,407.59 1085.39,254.92 			"/>
			<polygon class="st3" points="839.32,407.59 921.34,560.25 1085.39,560.25 1003.37,407.59 			"/>
			<polygon class="st1" points="921.34,560.25 1085.39,560.25 1003.37,712.92 839.32,712.92 			"/>
			<polygon class="st2" points="1167.42,712.92 1085.39,865.59 1003.37,712.92 1085.39,560.25 			"/>
			<polygon class="st3" points="839.32,712.92 921.34,865.59 1085.39,865.59 1003.37,712.92 			"/>
			<polygon class="st1" points="921.34,865.59 1085.39,865.59 1003.37,1018.25 839.32,1018.25 			"/>
			<polygon class="st2" points="1167.42,1018.25 1085.39,1170.92 1003.37,1018.25 1085.39,865.59 			"/>
			<polygon class="st3" points="839.32,1018.25 921.34,1170.92 1085.39,1170.92 1003.37,1018.25 			"/>
			<polygon class="st1" points="921.34,1170.92 1085.39,1170.92 1003.37,1323.59 839.32,1323.59 			"/>
			<polygon class="st2" points="1167.42,1323.59 1085.39,1476.25 1003.37,1323.59 1085.39,1170.92 			"/>
			<polygon class="st3" points="839.32,1323.59 921.34,1476.25 1085.39,1476.25 1003.37,1323.59 			"/>
			<polygon class="st1" points="921.34,1476.25 1085.39,1476.25 1003.37,1628.92 839.32,1628.92 			"/>
			<polygon class="st2" points="1167.42,1628.92 1085.39,1781.58 1003.37,1628.92 1085.39,1476.25 			"/>
			<polygon class="st3" points="839.32,1628.92 921.34,1781.58 1085.39,1781.58 1003.37,1628.92 			"/>
			<polygon class="st1" points="921.34,1781.58 1085.39,1781.58 1003.37,1934.25 839.32,1934.25 			"/>
			<polygon class="st2" points="1167.42,1934.25 1085.39,2086.92 1003.37,1934.25 1085.39,1781.58 			"/>
			<polygon class="st3" points="839.32,1934.25 921.34,2086.92 1085.39,2086.92 1003.37,1934.25 			"/>
			<polygon class="st1" points="921.34,2086.92 1085.39,2086.92 1003.37,2239.58 839.32,2239.58 			"/>
			<polygon class="st2" points="1167.42,2239.58 1085.39,2392.25 1003.37,2239.58 1085.39,2086.92 			"/>
			<polygon class="st3" points="839.32,2239.58 921.34,2392.25 1085.39,2392.25 1003.37,2239.58 			"/>
			<polygon class="st1" points="921.34,2392.25 1085.39,2392.25 1003.37,2544.92 839.32,2544.92 			"/>
			<polygon class="st2" points="1167.42,2544.92 1085.39,2697.58 1003.37,2544.92 1085.39,2392.25 			"/>
			<polygon class="st3" points="839.32,2544.92 921.34,2697.58 1085.39,2697.58 1003.37,2544.92 			"/>
			<polygon class="st1" points="921.34,2697.58 1085.39,2697.58 1003.37,2850.25 839.32,2850.25 			"/>
			<polygon class="st2" points="1167.42,2850.25 1085.39,3002.91 1003.37,2850.25 1085.39,2697.58 			"/>
			<polygon class="st3" points="839.32,2850.25 921.34,3002.91 1085.39,3002.91 1003.37,2850.25 			"/>
			<polygon class="st1" points="1167.42,-203.08 1331.47,-203.08 1249.45,-50.41 1085.39,-50.41 			"/>
			<polygon class="st2" points="1413.5,-50.41 1331.47,102.26 1249.45,-50.41 1331.47,-203.08 			"/>
			<polygon class="st3" points="1085.39,-50.41 1167.42,102.26 1331.47,102.26 1249.45,-50.41 			"/>
			<polygon class="st1" points="1167.42,102.26 1331.47,102.26 1249.45,254.92 1085.39,254.92 			"/>
			<polygon class="st2" points="1413.5,254.92 1331.47,407.59 1249.45,254.92 1331.47,102.26 			"/>
			<polygon class="st3" points="1085.39,254.92 1167.42,407.59 1331.47,407.59 1249.45,254.92 			"/>
			<polygon class="st1" points="1167.42,407.59 1331.47,407.59 1249.45,560.25 1085.39,560.25 			"/>
			<polygon class="st2" points="1413.5,560.25 1331.47,712.92 1249.45,560.25 1331.47,407.59 			"/>
			<polygon class="st3" points="1085.39,560.25 1167.42,712.92 1331.47,712.92 1249.45,560.25 			"/>
			<polygon class="st1" points="1167.42,712.92 1331.47,712.92 1249.45,865.59 1085.39,865.59 			"/>
			<polygon class="st2" points="1413.5,865.59 1331.47,1018.25 1249.45,865.59 1331.47,712.92 			"/>
			<polygon class="st3" points="1085.39,865.59 1167.42,1018.25 1331.47,1018.25 1249.45,865.59 			"/>
			<polygon class="st1" points="1167.42,1018.25 1331.47,1018.25 1249.45,1170.92 1085.39,1170.92 			"/>
			<polygon class="st2" points="1413.5,1170.92 1331.47,1323.59 1249.45,1170.92 1331.47,1018.25 			"/>
			<polygon class="st3" points="1085.39,1170.92 1167.42,1323.59 1331.47,1323.59 1249.45,1170.92 			"/>
			<polygon class="st1" points="1167.42,1323.59 1331.47,1323.59 1249.45,1476.25 1085.39,1476.25 			"/>
			<polygon class="st2" points="1413.5,1476.25 1331.47,1628.92 1249.45,1476.25 1331.47,1323.59 			"/>
			<polygon class="st3" points="1085.39,1476.25 1167.42,1628.92 1331.47,1628.92 1249.45,1476.25 			"/>
			<polygon class="st1" points="1167.42,1628.92 1331.47,1628.92 1249.45,1781.58 1085.39,1781.58 			"/>
			<polygon class="st2" points="1413.5,1781.58 1331.47,1934.25 1249.45,1781.58 1331.47,1628.92 			"/>
			<polygon class="st3" points="1085.39,1781.58 1167.42,1934.25 1331.47,1934.25 1249.45,1781.58 			"/>
			<polygon class="st1" points="1167.42,1934.25 1331.47,1934.25 1249.45,2086.92 1085.39,2086.92 			"/>
			<polygon class="st2" points="1413.5,2086.92 1331.47,2239.58 1249.45,2086.92 1331.47,1934.25 			"/>
			<polygon class="st3" points="1085.39,2086.92 1167.42,2239.58 1331.47,2239.58 1249.45,2086.92 			"/>
			<polygon class="st1" points="1167.42,2239.58 1331.47,2239.58 1249.45,2392.25 1085.39,2392.25 			"/>
			<polygon class="st2" points="1413.5,2392.25 1331.47,2544.92 1249.45,2392.25 1331.47,2239.58 			"/>
			<polygon class="st3" points="1085.39,2392.25 1167.42,2544.92 1331.47,2544.92 1249.45,2392.25 			"/>
			<polygon class="st1" points="1167.42,2544.92 1331.47,2544.92 1249.45,2697.58 1085.39,2697.58 			"/>
			<polygon class="st2" points="1413.5,2697.58 1331.47,2850.25 1249.45,2697.58 1331.47,2544.92 			"/>
			<polygon class="st3" points="1085.39,2697.58 1167.42,2850.25 1331.47,2850.25 1249.45,2697.58 			"/>
			<polygon class="st1" points="1413.5,-50.41 1577.55,-50.41 1495.52,102.26 1331.47,102.26 			"/>
			<polygon class="st2" points="1659.57,102.26 1577.55,254.92 1495.52,102.26 1577.55,-50.41 			"/>
			<polygon class="st3" points="1331.47,102.26 1413.5,254.92 1577.55,254.92 1495.52,102.26 			"/>
			<polygon class="st1" points="1413.5,254.92 1577.55,254.92 1495.52,407.59 1331.47,407.59 			"/>
			<polygon class="st2" points="1659.57,407.59 1577.55,560.25 1495.52,407.59 1577.55,254.92 			"/>
			<polygon class="st3" points="1331.47,407.59 1413.5,560.25 1577.55,560.25 1495.52,407.59 			"/>
			<polygon class="st1" points="1413.5,560.25 1577.55,560.25 1495.52,712.92 1331.47,712.92 			"/>
			<polygon class="st2" points="1659.57,712.92 1577.55,865.59 1495.52,712.92 1577.55,560.25 			"/>
			<polygon class="st3" points="1331.47,712.92 1413.5,865.59 1577.55,865.59 1495.52,712.92 			"/>
			<polygon class="st1" points="1413.5,865.59 1577.55,865.59 1495.52,1018.25 1331.47,1018.25 			"/>
			<polygon class="st2" points="1659.57,1018.25 1577.55,1170.92 1495.52,1018.25 1577.55,865.59 			"/>
			<polygon class="st3" points="1331.47,1018.25 1413.5,1170.92 1577.55,1170.92 1495.52,1018.25 			"/>
			<polygon class="st1" points="1413.5,1170.92 1577.55,1170.92 1495.52,1323.59 1331.47,1323.59 			"/>
			<polygon class="st2" points="1659.57,1323.59 1577.55,1476.25 1495.52,1323.59 1577.55,1170.92 			"/>
			<polygon class="st3" points="1331.47,1323.59 1413.5,1476.25 1577.55,1476.25 1495.52,1323.59 			"/>
			<polygon class="st1" points="1413.5,1476.25 1577.55,1476.25 1495.52,1628.92 1331.47,1628.92 			"/>
			<polygon class="st2" points="1659.57,1628.92 1577.55,1781.58 1495.52,1628.92 1577.55,1476.25 			"/>
			<polygon class="st3" points="1331.47,1628.92 1413.5,1781.58 1577.55,1781.58 1495.52,1628.92 			"/>
			<polygon class="st1" points="1413.5,1781.58 1577.55,1781.58 1495.52,1934.25 1331.47,1934.25 			"/>
			<polygon class="st2" points="1659.57,1934.25 1577.55,2086.92 1495.52,1934.25 1577.55,1781.58 			"/>
			<polygon class="st3" points="1331.47,1934.25 1413.5,2086.92 1577.55,2086.92 1495.52,1934.25 			"/>
			<polygon class="st1" points="1413.5,2086.92 1577.55,2086.92 1495.52,2239.58 1331.47,2239.58 			"/>
			<polygon class="st2" points="1659.57,2239.58 1577.55,2392.25 1495.52,2239.58 1577.55,2086.92 			"/>
			<polygon class="st3" points="1331.47,2239.58 1413.5,2392.25 1577.55,2392.25 1495.52,2239.58 			"/>
			<polygon class="st1" points="1413.5,2392.25 1577.55,2392.25 1495.52,2544.92 1331.47,2544.92 			"/>
			<polygon class="st2" points="1659.57,2544.92 1577.55,2697.58 1495.52,2544.92 1577.55,2392.25 			"/>
			<polygon class="st3" points="1331.47,2544.92 1413.5,2697.58 1577.55,2697.58 1495.52,2544.92 			"/>
			<polygon class="st1" points="1413.5,2697.58 1577.55,2697.58 1495.52,2850.25 1331.47,2850.25 			"/>
			<polygon class="st2" points="1659.57,2850.25 1577.55,3002.91 1495.52,2850.25 1577.55,2697.58 			"/>
			<polygon class="st3" points="1331.47,2850.25 1413.5,3002.91 1577.55,3002.91 1495.52,2850.25 			"/>
			<polygon class="st1" points="1659.57,-203.08 1823.63,-203.08 1741.6,-50.41 1577.55,-50.41 			"/>
			<polygon class="st2" points="1905.65,-50.41 1823.63,102.26 1741.6,-50.41 1823.63,-203.08 			"/>
			<polygon class="st3" points="1577.55,-50.41 1659.57,102.26 1823.63,102.26 1741.6,-50.41 			"/>
			<polygon class="st1" points="1659.57,102.26 1823.63,102.26 1741.6,254.92 1577.55,254.92 			"/>
			<polygon class="st2" points="1905.65,254.92 1823.63,407.59 1741.6,254.92 1823.63,102.26 			"/>
			<polygon class="st3" points="1577.55,254.92 1659.57,407.59 1823.63,407.59 1741.6,254.92 			"/>
			<polygon class="st1" points="1659.57,407.59 1823.63,407.59 1741.6,560.25 1577.55,560.25 			"/>
			<polygon class="st2" points="1905.65,560.25 1823.63,712.92 1741.6,560.25 1823.63,407.59 			"/>
			<polygon class="st3" points="1577.55,560.25 1659.57,712.92 1823.63,712.92 1741.6,560.25 			"/>
			<polygon class="st1" points="1659.57,712.92 1823.63,712.92 1741.6,865.59 1577.55,865.59 			"/>
			<polygon class="st2" points="1905.65,865.59 1823.63,1018.25 1741.6,865.59 1823.63,712.92 			"/>
			<polygon class="st3" points="1577.55,865.59 1659.57,1018.25 1823.63,1018.25 1741.6,865.59 			"/>
			<polygon class="st1" points="1659.57,1018.25 1823.63,1018.25 1741.6,1170.92 1577.55,1170.92 			"/>
			<polygon class="st2" points="1905.65,1170.92 1823.63,1323.59 1741.6,1170.92 1823.63,1018.25 			"/>
			<polygon class="st3" points="1577.55,1170.92 1659.57,1323.59 1823.63,1323.59 1741.6,1170.92 			"/>
			<polygon class="st1" points="1659.57,1323.59 1823.63,1323.59 1741.6,1476.25 1577.55,1476.25 			"/>
			<polygon class="st2" points="1905.65,1476.25 1823.63,1628.92 1741.6,1476.25 1823.63,1323.59 			"/>
			<polygon class="st3" points="1577.55,1476.25 1659.57,1628.92 1823.63,1628.92 1741.6,1476.25 			"/>
			<polygon class="st1" points="1659.57,1628.92 1823.63,1628.92 1741.6,1781.58 1577.55,1781.58 			"/>
			<polygon class="st2" points="1905.65,1781.58 1823.63,1934.25 1741.6,1781.58 1823.63,1628.92 			"/>
			<polygon class="st3" points="1577.55,1781.58 1659.57,1934.25 1823.63,1934.25 1741.6,1781.58 			"/>
			<polygon class="st1" points="1659.57,1934.25 1823.63,1934.25 1741.6,2086.92 1577.55,2086.92 			"/>
			<polygon class="st2" points="1905.65,2086.92 1823.63,2239.58 1741.6,2086.92 1823.63,1934.25 			"/>
			<polygon class="st3" points="1577.55,2086.92 1659.57,2239.58 1823.63,2239.58 1741.6,2086.92 			"/>
			<polygon class="st1" points="1659.57,2239.58 1823.63,2239.58 1741.6,2392.25 1577.55,2392.25 			"/>
			<polygon class="st2" points="1905.65,2392.25 1823.63,2544.92 1741.6,2392.25 1823.63,2239.58 			"/>
			<polygon class="st3" points="1577.55,2392.25 1659.57,2544.92 1823.63,2544.92 1741.6,2392.25 			"/>
			<polygon class="st1" points="1659.57,2544.92 1823.63,2544.92 1741.6,2697.58 1577.55,2697.58 			"/>
			<polygon class="st2" points="1905.65,2697.58 1823.63,2850.25 1741.6,2697.58 1823.63,2544.92 			"/>
			<polygon class="st3" points="1577.55,2697.58 1659.57,2850.25 1823.63,2850.25 1741.6,2697.58 			"/>
			<polygon class="st1" points="1905.65,-50.41 2069.7,-50.41 1987.68,102.26 1823.63,102.26 			"/>
			<polygon class="st2" points="2151.73,102.26 2069.7,254.92 1987.68,102.26 2069.7,-50.41 			"/>
			<polygon class="st3" points="1823.63,102.26 1905.65,254.92 2069.7,254.92 1987.68,102.26 			"/>
			<polygon class="st1" points="1905.65,254.92 2069.7,254.92 1987.68,407.59 1823.63,407.59 			"/>
			<polygon class="st2" points="2151.73,407.59 2069.7,560.25 1987.68,407.59 2069.7,254.92 			"/>
			<polygon class="st3" points="1823.63,407.59 1905.65,560.25 2069.7,560.25 1987.68,407.59 			"/>
			<polygon class="st1" points="1905.65,560.25 2069.7,560.25 1987.68,712.92 1823.63,712.92 			"/>
			<polygon class="st2" points="2151.73,712.92 2069.7,865.59 1987.68,712.92 2069.7,560.25 			"/>
			<polygon class="st3" points="1823.63,712.92 1905.65,865.59 2069.7,865.59 1987.68,712.92 			"/>
			<polygon class="st1" points="1905.65,865.59 2069.7,865.59 1987.68,1018.25 1823.63,1018.25 			"/>
			<polygon class="st2" points="2151.73,1018.25 2069.7,1170.92 1987.68,1018.25 2069.7,865.59 			"/>
			<polygon class="st3" points="1823.63,1018.25 1905.65,1170.92 2069.7,1170.92 1987.68,1018.25 			"/>
			<polygon class="st1" points="1905.65,1170.92 2069.7,1170.92 1987.68,1323.59 1823.63,1323.59 			"/>
			<polygon class="st2" points="2151.73,1323.59 2069.7,1476.25 1987.68,1323.59 2069.7,1170.92 			"/>
			<polygon class="st3" points="1823.63,1323.59 1905.65,1476.25 2069.7,1476.25 1987.68,1323.59 			"/>
			<polygon class="st1" points="1905.65,1476.25 2069.7,1476.25 1987.68,1628.92 1823.63,1628.92 			"/>
			<polygon class="st2" points="2151.73,1628.92 2069.7,1781.58 1987.68,1628.92 2069.7,1476.25 			"/>
			<polygon class="st3" points="1823.63,1628.92 1905.65,1781.58 2069.7,1781.58 1987.68,1628.92 			"/>
			<polygon class="st1" points="1905.65,1781.58 2069.7,1781.58 1987.68,1934.25 1823.63,1934.25 			"/>
			<polygon class="st2" points="2151.73,1934.25 2069.7,2086.92 1987.68,1934.25 2069.7,1781.58 			"/>
			<polygon class="st3" points="1823.63,1934.25 1905.65,2086.92 2069.7,2086.92 1987.68,1934.25 			"/>
			<polygon class="st1" points="1905.65,2086.92 2069.7,2086.92 1987.68,2239.58 1823.63,2239.58 			"/>
			<polygon class="st2" points="2151.73,2239.58 2069.7,2392.25 1987.68,2239.58 2069.7,2086.92 			"/>
			<polygon class="st3" points="1823.63,2239.58 1905.65,2392.25 2069.7,2392.25 1987.68,2239.58 			"/>
			<polygon class="st1" points="1905.65,2392.25 2069.7,2392.25 1987.68,2544.92 1823.63,2544.92 			"/>
			<polygon class="st2" points="2151.73,2544.92 2069.7,2697.58 1987.68,2544.92 2069.7,2392.25 			"/>
			<polygon class="st3" points="1823.63,2544.92 1905.65,2697.58 2069.7,2697.58 1987.68,2544.92 			"/>
			<polygon class="st1" points="1905.65,2697.58 2069.7,2697.58 1987.68,2850.25 1823.63,2850.25 			"/>
			<polygon class="st2" points="2151.73,2850.25 2069.7,3002.91 1987.68,2850.25 2069.7,2697.58 			"/>
			<polygon class="st3" points="1823.63,2850.25 1905.65,3002.91 2069.7,3002.91 1987.68,2850.25 			"/>
			<polygon class="st1" points="2151.73,-203.08 2315.78,-203.08 2233.76,-50.41 2069.7,-50.41 			"/>
			<polygon class="st2" points="2397.81,-50.41 2315.78,102.26 2233.76,-50.41 2315.78,-203.08 			"/>
			<polygon class="st3" points="2069.7,-50.41 2151.73,102.26 2315.78,102.26 2233.76,-50.41 			"/>
			<polygon class="st1" points="2151.73,102.26 2315.78,102.26 2233.76,254.92 2069.7,254.92 			"/>
			<polygon class="st2" points="2397.81,254.92 2315.78,407.59 2233.76,254.92 2315.78,102.26 			"/>
			<polygon class="st3" points="2069.7,254.92 2151.73,407.59 2315.78,407.59 2233.76,254.92 			"/>
			<polygon class="st1" points="2151.73,407.59 2315.78,407.59 2233.76,560.25 2069.7,560.25 			"/>
			<polygon class="st2" points="2397.81,560.25 2315.78,712.92 2233.76,560.25 2315.78,407.59 			"/>
			<polygon class="st3" points="2069.7,560.25 2151.73,712.92 2315.78,712.92 2233.76,560.25 			"/>
			<polygon class="st1" points="2151.73,712.92 2315.78,712.92 2233.76,865.59 2069.7,865.59 			"/>
			<polygon class="st2" points="2397.81,865.59 2315.78,1018.25 2233.76,865.59 2315.78,712.92 			"/>
			<polygon class="st3" points="2069.7,865.59 2151.73,1018.25 2315.78,1018.25 2233.76,865.59 			"/>
			<polygon class="st1" points="2151.73,1018.25 2315.78,1018.25 2233.76,1170.92 2069.7,1170.92 			"/>
			<polygon class="st2" points="2397.81,1170.92 2315.78,1323.59 2233.76,1170.92 2315.78,1018.25 			"/>
			<polygon class="st3" points="2069.7,1170.92 2151.73,1323.59 2315.78,1323.59 2233.76,1170.92 			"/>
			<polygon class="st1" points="2151.73,1323.59 2315.78,1323.59 2233.76,1476.25 2069.7,1476.25 			"/>
			<polygon class="st2" points="2397.81,1476.25 2315.78,1628.92 2233.76,1476.25 2315.78,1323.59 			"/>
			<polygon class="st3" points="2069.7,1476.25 2151.73,1628.92 2315.78,1628.92 2233.76,1476.25 			"/>
			<polygon class="st1" points="2151.73,1628.92 2315.78,1628.92 2233.76,1781.58 2069.7,1781.58 			"/>
			<polygon class="st2" points="2397.81,1781.58 2315.78,1934.25 2233.76,1781.58 2315.78,1628.92 			"/>
			<polygon class="st3" points="2069.7,1781.58 2151.73,1934.25 2315.78,1934.25 2233.76,1781.58 			"/>
			<polygon class="st1" points="2151.73,1934.25 2315.78,1934.25 2233.76,2086.92 2069.7,2086.92 			"/>
			<polygon class="st2" points="2397.81,2086.92 2315.78,2239.58 2233.76,2086.92 2315.78,1934.25 			"/>
			<polygon class="st3" points="2069.7,2086.92 2151.73,2239.58 2315.78,2239.58 2233.76,2086.92 			"/>
			<polygon class="st1" points="2151.73,2239.58 2315.78,2239.58 2233.76,2392.25 2069.7,2392.25 			"/>
			<polygon class="st2" points="2397.81,2392.25 2315.78,2544.92 2233.76,2392.25 2315.78,2239.58 			"/>
			<polygon class="st3" points="2069.7,2392.25 2151.73,2544.92 2315.78,2544.92 2233.76,2392.25 			"/>
			<polygon class="st1" points="2151.73,2544.92 2315.78,2544.92 2233.76,2697.58 2069.7,2697.58 			"/>
			<polygon class="st2" points="2397.81,2697.58 2315.78,2850.25 2233.76,2697.58 2315.78,2544.92 			"/>
			<polygon class="st3" points="2069.7,2697.58 2151.73,2850.25 2315.78,2850.25 2233.76,2697.58 			"/>
			<polygon class="st1" points="2397.81,-50.41 2561.86,-50.41 2479.83,102.26 2315.78,102.26 			"/>
			<polygon class="st2" points="2643.88,102.26 2561.86,254.92 2479.83,102.26 2561.86,-50.41 			"/>
			<polygon class="st3" points="2315.78,102.26 2397.81,254.92 2561.86,254.92 2479.83,102.26 			"/>
			<polygon class="st1" points="2397.81,254.92 2561.86,254.92 2479.83,407.59 2315.78,407.59 			"/>
			<polygon class="st2" points="2643.88,407.59 2561.86,560.25 2479.83,407.59 2561.86,254.92 			"/>
			<polygon class="st3" points="2315.78,407.59 2397.81,560.25 2561.86,560.25 2479.83,407.59 			"/>
			<polygon class="st1" points="2397.81,560.25 2561.86,560.25 2479.83,712.92 2315.78,712.92 			"/>
			<polygon class="st2" points="2643.88,712.92 2561.86,865.59 2479.83,712.92 2561.86,560.25 			"/>
			<polygon class="st3" points="2315.78,712.92 2397.81,865.59 2561.86,865.59 2479.83,712.92 			"/>
			<polygon class="st1" points="2397.81,865.59 2561.86,865.59 2479.83,1018.25 2315.78,1018.25 			"/>
			<polygon class="st2" points="2643.88,1018.25 2561.86,1170.92 2479.83,1018.25 2561.86,865.59 			"/>
			<polygon class="st3" points="2315.78,1018.25 2397.81,1170.92 2561.86,1170.92 2479.83,1018.25 			"/>
			<polygon class="st1" points="2397.81,1170.92 2561.86,1170.92 2479.83,1323.59 2315.78,1323.59 			"/>
			<polygon class="st2" points="2643.88,1323.59 2561.86,1476.25 2479.83,1323.59 2561.86,1170.92 			"/>
			<polygon class="st3" points="2315.78,1323.59 2397.81,1476.25 2561.86,1476.25 2479.83,1323.59 			"/>
			<polygon class="st1" points="2397.81,1476.25 2561.86,1476.25 2479.83,1628.92 2315.78,1628.92 			"/>
			<polygon class="st2" points="2643.88,1628.92 2561.86,1781.58 2479.83,1628.92 2561.86,1476.25 			"/>
			<polygon class="st3" points="2315.78,1628.92 2397.81,1781.58 2561.86,1781.58 2479.83,1628.92 			"/>
			<polygon class="st1" points="2397.81,1781.58 2561.86,1781.58 2479.83,1934.25 2315.78,1934.25 			"/>
			<polygon class="st2" points="2643.88,1934.25 2561.86,2086.92 2479.83,1934.25 2561.86,1781.58 			"/>
			<polygon class="st3" points="2315.78,1934.25 2397.81,2086.92 2561.86,2086.92 2479.83,1934.25 			"/>
			<polygon class="st1" points="2397.81,2086.92 2561.86,2086.92 2479.83,2239.58 2315.78,2239.58 			"/>
			<polygon class="st2" points="2643.88,2239.58 2561.86,2392.25 2479.83,2239.58 2561.86,2086.92 			"/>
			<polygon class="st3" points="2315.78,2239.58 2397.81,2392.25 2561.86,2392.25 2479.83,2239.58 			"/>
			<polygon class="st1" points="2397.81,2392.25 2561.86,2392.25 2479.83,2544.92 2315.78,2544.92 			"/>
			<polygon class="st2" points="2643.88,2544.92 2561.86,2697.58 2479.83,2544.92 2561.86,2392.25 			"/>
			<polygon class="st3" points="2315.78,2544.92 2397.81,2697.58 2561.86,2697.58 2479.83,2544.92 			"/>
			<polygon class="st1" points="2397.81,2697.58 2561.86,2697.58 2479.83,2850.25 2315.78,2850.25 			"/>
			<polygon class="st2" points="2643.88,2850.25 2561.86,3002.91 2479.83,2850.25 2561.86,2697.58 			"/>
			<polygon class="st3" points="2315.78,2850.25 2397.81,3002.91 2561.86,3002.91 2479.83,2850.25 			"/>
			<polygon class="st1" points="2643.88,-203.08 2807.94,-203.08 2725.91,-50.41 2561.86,-50.41 			"/>
			<polygon class="st2" points="2889.96,-50.41 2807.94,102.26 2725.91,-50.41 2807.94,-203.08 			"/>
			<polygon class="st3" points="2561.86,-50.41 2643.88,102.26 2807.94,102.26 2725.91,-50.41 			"/>
			<polygon class="st1" points="2643.88,102.26 2807.94,102.26 2725.91,254.92 2561.86,254.92 			"/>
			<polygon class="st2" points="2889.96,254.92 2807.94,407.59 2725.91,254.92 2807.94,102.26 			"/>
			<polygon class="st3" points="2561.86,254.92 2643.88,407.59 2807.94,407.59 2725.91,254.92 			"/>
			<polygon class="st1" points="2643.88,407.59 2807.94,407.59 2725.91,560.25 2561.86,560.25 			"/>
			<polygon class="st2" points="2889.96,560.25 2807.94,712.92 2725.91,560.25 2807.94,407.59 			"/>
			<polygon class="st3" points="2561.86,560.25 2643.88,712.92 2807.94,712.92 2725.91,560.25 			"/>
			<polygon class="st1" points="2643.88,712.92 2807.94,712.92 2725.91,865.59 2561.86,865.59 			"/>
			<polygon class="st2" points="2889.96,865.59 2807.94,1018.25 2725.91,865.59 2807.94,712.92 			"/>
			<polygon class="st3" points="2561.86,865.59 2643.88,1018.25 2807.94,1018.25 2725.91,865.59 			"/>
			<polygon class="st1" points="2643.88,1018.25 2807.94,1018.25 2725.91,1170.92 2561.86,1170.92 			"/>
			<polygon class="st2" points="2889.96,1170.92 2807.94,1323.59 2725.91,1170.92 2807.94,1018.25 			"/>
			<polygon class="st3" points="2561.86,1170.92 2643.88,1323.59 2807.94,1323.59 2725.91,1170.92 			"/>
			<polygon class="st1" points="2643.88,1323.59 2807.94,1323.59 2725.91,1476.25 2561.86,1476.25 			"/>
			<polygon class="st2" points="2889.96,1476.25 2807.94,1628.92 2725.91,1476.25 2807.94,1323.59 			"/>
			<polygon class="st3" points="2561.86,1476.25 2643.88,1628.92 2807.94,1628.92 2725.91,1476.25 			"/>
			<polygon class="st1" points="2643.88,1628.92 2807.94,1628.92 2725.91,1781.58 2561.86,1781.58 			"/>
			<polygon class="st2" points="2889.96,1781.58 2807.94,1934.25 2725.91,1781.58 2807.94,1628.92 			"/>
			<polygon class="st3" points="2561.86,1781.58 2643.88,1934.25 2807.94,1934.25 2725.91,1781.58 			"/>
			<polygon class="st1" points="2643.88,1934.25 2807.94,1934.25 2725.91,2086.92 2561.86,2086.92 			"/>
			<polygon class="st2" points="2889.96,2086.92 2807.94,2239.58 2725.91,2086.92 2807.94,1934.25 			"/>
			<polygon class="st3" points="2561.86,2086.92 2643.88,2239.58 2807.94,2239.58 2725.91,2086.92 			"/>
			<polygon class="st1" points="2643.88,2239.58 2807.94,2239.58 2725.91,2392.25 2561.86,2392.25 			"/>
			<polygon class="st2" points="2889.96,2392.25 2807.94,2544.92 2725.91,2392.25 2807.94,2239.58 			"/>
			<polygon class="st3" points="2561.86,2392.25 2643.88,2544.92 2807.94,2544.92 2725.91,2392.25 			"/>
			<polygon class="st1" points="2643.88,2544.92 2807.94,2544.92 2725.91,2697.58 2561.86,2697.58 			"/>
			<polygon class="st2" points="2889.96,2697.58 2807.94,2850.25 2725.91,2697.58 2807.94,2544.92 			"/>
			<polygon class="st3" points="2561.86,2697.58 2643.88,2850.25 2807.94,2850.25 2725.91,2697.58 			"/>
		</g>
		
			<linearGradient id="SVGID_00000114035066918796465420000016824362805271429528_" gradientUnits="userSpaceOnUse" x1="1198.1611" y1="2707.3809" x2="1198.1611" y2="33.4998">
			<stop  offset="0" style="stop-color:#1D71B8"/>
			<stop  offset="0.9988" style="stop-color:#36A9E1"/>
		</linearGradient>
		
			<rect style="opacity:0.79;clip-path:url(#SVGID_00000058553390797640266220000002931246765142120096_);fill:url(#SVGID_00000114035066918796465420000016824362805271429528_);" width="2396.32" height="2844.18"/>
	</g>
	<path class="st5" d="M840.12,1699.83h-5.37v-0.15C836.53,1699.78,838.32,1699.83,840.12,1699.83z"/>
	<g>
		<g>
			<g>
				<path class="st6" d="M1657.2,1076.24v192.25c0,65.43-53.05,118.47-118.47,118.47h-674.2c-2.38,0-4.74-0.07-7.1-0.2
					c-65.96-3.67-118.31-58.32-118.31-125.21h158.53v-178.39c0-69.25,56.14-125.39,125.41-125.39v396.07h33.13V1116.3h125.41v237.54
					h33.13V957.77h125.41v396.07h33.13V957.77h125.41v396.07h33.13V957.77h6.94C1604.15,957.77,1657.2,1010.8,1657.2,1076.24z"/>
			</g>
			<g>
				<path class="st6" d="M775.86,1191.7c-22.7-22.69-36.73-54.03-36.73-88.66v-303.8h158.53c69.26,0,125.41,56.14,125.41,125.41
					H864.53v303.79C829.9,1228.43,798.54,1214.4,775.86,1191.7z"/>
			</g>
			<g>
				<rect x="1056.19" y="957.77" class="st6" width="125.41" height="125.41"/>
			</g>
		</g>
		<g>
			<path class="st6" d="M1075.33,799.51c-0.63-0.65-1.42-0.98-2.37-0.98c-0.97,0-1.79,0.34-2.46,1.01c-0.7,0.68-1.04,1.48-1.04,2.4
				c0,1.01,0.34,1.85,1.04,2.53c0.65,0.65,1.47,0.98,2.46,0.98c0.93,0,1.72-0.34,2.37-1.01c0.65-0.68,0.98-1.51,0.98-2.5
				C1076.31,800.99,1075.98,800.18,1075.33,799.51z M1065.79,799.51c-0.65-0.65-1.45-0.98-2.39-0.98c-0.97,0-1.79,0.34-2.47,1.01
				c-0.65,0.68-0.98,1.48-0.98,2.4c0,1.01,0.33,1.85,0.98,2.53c0.68,0.65,1.5,0.98,2.47,0.98c0.92,0,1.72-0.34,2.39-1.01
				c0.68-0.7,1.01-1.53,1.01-2.5C1066.8,800.99,1066.47,800.18,1065.79,799.51z"/>
			<path class="st6" d="M1161.32,848.98c-0.68-0.66-1.51-0.98-2.5-0.98c-0.96,0-1.78,0.34-2.46,1.01c-0.69,0.67-1.04,1.49-1.04,2.46
				c0,0.99,0.35,1.82,1.04,2.5c0.68,0.67,1.5,1.01,2.46,1.01c0.97,0,1.8-0.34,2.5-1.01c0.71-0.7,1.07-1.53,1.07-2.5
				C1162.39,850.48,1162.03,849.65,1161.32,848.98z"/>
			<path class="st6" d="M1080.6,811.38h5.93v30.4h-17.64c-8,0-13.83-1.6-17.49-4.8c-3.47-3.03-5.21-7.7-5.21-14.01
				c0-4.09,0.72-7.66,2.15-10.74l6.31-1.1c-1.64,3.34-2.46,7.06-2.46,11.14c0,5.14,1.21,8.83,3.63,11.08
				c2.67,2.46,7.26,3.69,13.76,3.69h11.02V811.38z"/>
			<path class="st6" d="M1235.03,814.58c-2.25-2.59-5.44-3.88-9.57-3.88c-3.89,0-7.41,1.25-10.57,3.75
				c-3.33,2.65-5.73,6.34-7.2,11.05h-0.06c0.46-3.26,0.69-7.12,0.69-11.58V796.2h-5.93v40.84h-15.06V796.2h-5.93v40.84h-15.28
				v-25.66h-5.94v25.66h-55.94V796.2h-5.93v45.58h121.19c6.56,0,11.46-1.62,14.68-4.86c2.8-2.82,4.2-6.67,4.2-11.56
				C1238.38,820.71,1237.26,817.11,1235.03,814.58z M1220.1,837.04h-11.84c0.55-5.64,2.24-10.55,5.08-14.74
				c3.12-4.61,6.77-6.91,10.96-6.91c5.3,0,7.95,3.47,7.95,10.42C1232.25,833.3,1228.2,837.04,1220.1,837.04z"/>
			<path class="st6" d="M1345.17,848.98c-0.67-0.66-1.51-0.98-2.5-0.98c-0.96,0-1.78,0.34-2.46,1.01c-0.69,0.67-1.04,1.49-1.04,2.46
				c0,0.99,0.35,1.82,1.04,2.5c0.68,0.67,1.5,1.01,2.46,1.01c0.97,0,1.8-0.34,2.5-1.01c0.71-0.7,1.07-1.53,1.07-2.5
				C1346.24,850.48,1345.88,849.65,1345.17,848.98z"/>
			<path class="st6" d="M1374.75,799.51c-0.66-0.65-1.45-0.98-2.4-0.98c-0.97,0-1.79,0.34-2.46,1.01c-0.7,0.68-1.05,1.48-1.05,2.4
				c0,1.01,0.35,1.85,1.05,2.53c0.67,0.65,1.49,0.98,2.46,0.98c0.95,0,1.74-0.34,2.4-1.01c0.63-0.68,0.94-1.51,0.94-2.5
				C1375.69,800.99,1375.38,800.18,1374.75,799.51z M1365.18,799.51c-0.65-0.65-1.45-0.98-2.4-0.98c-0.96,0-1.77,0.34-2.43,1.01
				c-0.67,0.68-1.01,1.48-1.01,2.4c0,1.01,0.34,1.85,1.01,2.53c0.66,0.65,1.47,0.98,2.43,0.98c0.95,0,1.75-0.34,2.4-1.01
				c0.68-0.7,1.01-1.53,1.01-2.5C1366.19,800.99,1365.86,800.18,1365.18,799.51z"/>
			<path class="st6" d="M1395.8,799.51c-0.65-0.65-1.45-0.98-2.4-0.98c-0.96,0-1.78,0.34-2.46,1.01c-0.69,0.68-1.04,1.48-1.04,2.4
				c0,1.01,0.35,1.85,1.04,2.53c0.68,0.65,1.5,0.98,2.46,0.98c0.95,0,1.75-0.34,2.4-1.01c0.63-0.68,0.95-1.51,0.95-2.5
				C1396.75,800.99,1396.43,800.18,1395.8,799.51z M1386.24,799.51c-0.65-0.65-1.45-0.98-2.4-0.98c-0.97,0-1.78,0.34-2.43,1.01
				c-0.68,0.68-1.01,1.48-1.01,2.4c0,1.01,0.33,1.85,1.01,2.53c0.65,0.65,1.46,0.98,2.43,0.98c0.95,0,1.75-0.34,2.4-1.01
				c0.67-0.7,1.01-1.53,1.01-2.5C1387.25,800.99,1386.91,800.18,1386.24,799.51z"/>
			<path class="st6" d="M1386.68,811.38v25.66h-15.12v-25.66h-5.94v25.66h-15.65v-25.66h-5.94v25.66h-52.78
				c-3.56,0-7.05-1.3-10.48-3.91c5.96-3.54,8.93-7.72,8.93-12.56c0-2.84-0.97-5.17-2.93-6.98c-2.23-2.02-5.41-3.03-9.53-3.03
				c-5.62,0-11.85,2.59-18.69,7.76l-0.54,4.14c3.89,1.26,8.62,4.58,14.17,9.94c-5.53,2.68-9.13,4.64-10.79,5.91
				c-3.45,2.59-5.18,5.59-5.18,9.03c0,3.26,1.38,5.87,4.14,7.82c3.07,2.19,7.57,3.29,13.51,3.29c3.62,0,7.34-0.36,11.17-1.08
				l-0.31-4.54c-3.5,0.61-6.88,0.91-10.14,0.91c-8.18,0-12.28-2.3-12.28-6.91c0-2.19,1.4-4.24,4.2-6.15
				c1.14-0.76,4.24-2.39,9.31-4.9c4.61,4,9.48,6,14.59,6h102.21v-30.4H1386.68z M1264.1,820.19c4.89-3.45,9.04-5.18,12.47-5.18
				c2.38,0,4.2,0.62,5.46,1.86c1.14,1.12,1.71,2.61,1.71,4.49c0,3.11-2.24,5.97-6.73,8.58
				C1271.25,824.55,1266.94,821.3,1264.1,820.19z"/>
			<path class="st6" d="M1626.44,811.38v25.66h-17.59c2.93-2.79,4.39-6.69,4.39-11.68c0-4.65-1.11-8.25-3.35-10.79
				c-2.25-2.59-5.44-3.88-9.56-3.88c-3.89,0-7.42,1.25-10.57,3.75c-3.33,2.65-5.73,6.34-7.2,11.05h-0.07
				c0.47-3.26,0.7-7.12,0.7-11.58V796.2h-5.94v40.84h-15.15v-25.66h-5.93v25.66h-18.57v-25.66h-5.93v25.66h-69.45v-24.08
				c-3.91-1.52-8.24-2.27-12.97-2.27c-5.26,0-9.37,1.6-12.31,4.79c-2.65,2.93-3.98,6.68-3.98,11.24c0,10.04,5.64,15.06,16.92,15.06
				h6.22v10.99c-4.53,0.35-8.74,0.53-12.63,0.53c-8.31,0-14.2-1.19-17.68-3.57c-3.47-2.35-5.2-6.34-5.2-11.96
				c0-4.17,0.6-8.34,1.83-12.53l-6.16,1.17c-1.07,3.95-1.61,7.96-1.61,12.02c0,6.84,2.18,11.81,6.53,14.9
				c4.42,3.12,11.6,4.68,21.53,4.68c5.94,0,12.44-0.29,19.51-0.86v-15.37h170.15v-30.4H1626.44z M1456.41,837.04h-5.68
				c-7.85,0-11.77-3.66-11.77-10.98c0-3.22,0.86-5.8,2.59-7.74c1.74-1.95,4.09-2.93,7.04-2.93c3.11,0,5.72,0.5,7.82,1.51V837.04z
				 M1595.66,837.04h-12.53c0.54-5.64,2.24-10.55,5.08-14.74c3.11-4.61,6.76-6.91,10.95-6.91c5.31,0,7.96,3.47,7.96,10.42
				C1607.12,833.1,1603.3,836.84,1595.66,837.04z"/>
			<path class="st6" d="M1441.48,804.47c-0.65-0.68-0.98-1.52-0.98-2.53c0-0.92,0.33-1.72,0.98-2.4c0.68-0.67,1.5-1.01,2.46-1.01
				c0.95,0,1.75,0.33,2.4,0.98c0.68,0.67,1.01,1.48,1.01,2.43c0,0.97-0.33,1.8-1.01,2.5c-0.67,0.67-1.47,1.01-2.4,1.01
				C1442.98,805.45,1442.16,805.13,1441.48,804.47z"/>
			<path class="st6" d="M1451.05,804.47c-0.7-0.68-1.04-1.52-1.04-2.53c0-0.92,0.34-1.72,1.04-2.4c0.67-0.67,1.49-1.01,2.46-1.01
				c0.95,0,1.74,0.33,2.37,0.98c0.65,0.67,0.98,1.48,0.98,2.43c0,0.99-0.33,1.82-0.98,2.5c-0.66,0.67-1.44,1.01-2.37,1.01
				C1452.52,805.45,1451.7,805.13,1451.05,804.47z"/>
			<path class="st6" d="M1539.69,848.98c0.65,0.65,0.98,1.46,0.98,2.43c0,0.97-0.33,1.79-0.98,2.46c-0.65,0.69-1.45,1.04-2.4,1.04
				c-0.97,0-1.79-0.34-2.46-1.01c-0.68-0.67-1.01-1.5-1.01-2.49c0-0.95,0.33-1.75,1.01-2.4c0.67-0.67,1.49-1.01,2.46-1.01
				C1538.24,848,1539.04,848.33,1539.69,848.98z"/>
			<path class="st6" d="M1530.16,848.98c0.67,0.65,1.01,1.46,1.01,2.43c0,0.97-0.34,1.79-1.01,2.46c-0.68,0.69-1.49,1.04-2.44,1.04
				c-0.96,0-1.77-0.34-2.43-1.01c-0.65-0.65-0.98-1.48-0.98-2.49c0-0.95,0.33-1.75,0.98-2.4c0.66-0.67,1.47-1.01,2.43-1.01
				C1528.67,848,1529.48,848.33,1530.16,848.98z"/>
			<path class="st6" d="M1557.3,848.98c0.72,0.67,1.08,1.5,1.08,2.49c0,0.97-0.36,1.8-1.08,2.5c-0.69,0.67-1.52,1.01-2.49,1.01
				s-1.79-0.34-2.46-1.01c-0.7-0.68-1.04-1.51-1.04-2.5c0-0.97,0.34-1.79,1.04-2.46c0.67-0.67,1.49-1.01,2.46-1.01
				C1555.8,848,1556.63,848.33,1557.3,848.98z"/>
			<path class="st6" d="M1621.17,804.47c-0.68-0.68-1.01-1.52-1.01-2.53c0-0.92,0.33-1.72,1.01-2.4c0.65-0.67,1.46-1.01,2.43-1.01
				c0.94,0,1.74,0.33,2.4,0.98c0.67,0.67,1.01,1.48,1.01,2.43c0,0.97-0.34,1.8-1.01,2.5c-0.66,0.67-1.46,1.01-2.4,1.01
				C1622.63,805.45,1621.82,805.13,1621.17,804.47z"/>
			<path class="st6" d="M1636.51,801.94c0,0.99-0.32,1.82-0.95,2.5c-0.65,0.67-1.45,1.01-2.4,1.01c-0.97,0-1.79-0.33-2.46-0.98
				c-0.7-0.68-1.04-1.52-1.04-2.53c0-0.92,0.34-1.72,1.04-2.4c0.67-0.67,1.49-1.01,2.46-1.01c0.95,0,1.75,0.33,2.4,0.98
				C1636.19,800.18,1636.51,800.99,1636.51,801.94z"/>
			<path class="st6" d="M1094.11,919.37h-7.32l-8.33-29.36c-0.74-2.84-1.27-5.36-1.61-7.54h-0.06c-0.23,1.85-0.75,4.37-1.55,7.54
				l-8.14,29.36h-7.1l-11.52-43.63h6.35l7.35,28.44c0.67,2.53,1.25,5.32,1.74,8.4h0.09c0.44-2.84,1.02-5.53,1.74-8.08l8.08-28.76
				h6.72l8.33,28.95c0.74,2.63,1.31,5.22,1.74,7.77h0.06c0.46-2.59,0.96-4.96,1.48-7.1l7.58-29.61h5.87L1094.11,919.37z"/>
			<path class="st6" d="M1113.3,919.37v-43.63h5.94v43.63H1113.3z"/>
			<path class="st6" d="M1144.36,880.7v38.67h-5.97V880.7h-12.53v-4.96h31.09v4.96H1144.36z"/>
			<path class="st6" d="M1183.54,916.18c-2.97,2.5-6.88,3.76-11.74,3.76c-3.52,0-6.7-0.4-9.57-1.2l0.73-5.71
				c2.95,1.18,6.01,1.77,9.19,1.77c2.74,0,4.93-0.57,6.6-1.71c1.89-1.3,2.84-3.22,2.84-5.75c0-2.15-1.03-3.91-3.09-5.3
				c-0.91-0.59-3.17-1.62-6.79-3.09c-3.12-1.26-5.37-2.55-6.76-3.85c-2.06-1.96-3.09-4.49-3.09-7.61c0-3.68,1.31-6.63,3.95-8.84
				c2.74-2.34,6.5-3.5,11.3-3.5c2.9,0,5.53,0.28,7.89,0.85l-0.69,5.24c-2.55-0.78-5.05-1.17-7.51-1.17c-5.85,0-8.78,2.26-8.78,6.79
				c0,2.04,1.03,3.75,3.09,5.11c0.88,0.57,3.18,1.61,6.88,3.12c3.16,1.28,5.45,2.59,6.88,3.91c2.06,1.96,3.09,4.47,3.09,7.54
				C1187.96,910.51,1186.48,913.72,1183.54,916.18z"/>
			<path class="st6" d="M1225.59,889.21c-0.69-0.67-1.53-1.01-2.49-1.01c-0.97,0-1.79,0.35-2.47,1.05
				c-0.69,0.69-1.04,1.53-1.04,2.52c0,0.97,0.35,1.79,1.04,2.46c0.68,0.68,1.5,1.01,2.47,1.01c0.96,0,1.8-0.33,2.49-1.01
				c0.72-0.69,1.07-1.51,1.07-2.46C1226.66,890.76,1226.31,889.92,1225.59,889.21z"/>
			<path class="st6" d="M1266.66,888.27c-5.14,0-9.17,1.58-12.09,4.73c-2.72,2.91-4.07,6.59-4.07,11.05c0,5.26,1.6,8.9,4.8,10.92
				c-1.01-0.23-2.27-0.34-3.76-0.34h-11.3v-25.67h-5.97v27.5c0,8.75-3.51,13.13-10.54,13.13c-3.01,0-5.43-0.94-7.26-2.81
				c-2.32-2.36-3.47-6.06-3.47-11.11c0-4.38,0.61-8.66,1.83-12.85l-6.16,1.17c-1.07,3.95-1.61,8.05-1.61,12.28
				c0,6.25,1.57,10.91,4.7,13.98c2.76,2.69,6.56,4.04,11.4,4.04c10.27,0,15.89-4.98,16.86-14.93h40.47v-16.6
				C1280.49,893.11,1275.88,888.27,1266.66,888.27z M1274.68,914.63h-6.41c-7.85,0-11.77-3.65-11.77-10.93
				c0-3.26,0.86-5.85,2.58-7.76c1.73-1.98,4.09-2.97,7.07-2.97c5.69,0,8.53,3.6,8.53,10.8V914.63z"/>
			<path class="st6" d="M1325.28,919.37c-8,0-13.83-1.6-17.49-4.8c-3.47-3.03-5.21-7.7-5.21-14.02c0-4.08,0.71-7.66,2.15-10.73
				l6.31-1.11c-1.64,3.35-2.46,7.06-2.46,11.14c0,5.13,1.21,8.83,3.63,11.08c2.67,2.46,7.26,3.69,13.76,3.69h11.02v-25.66h5.93v30.4
				H1325.28z M1317.32,882.05c-0.65-0.67-0.98-1.51-0.98-2.53c0-0.93,0.33-1.72,0.98-2.4c0.67-0.67,1.49-1.01,2.46-1.01
				c0.95,0,1.75,0.33,2.4,0.98c0.67,0.67,1.01,1.48,1.01,2.43c0,0.97-0.34,1.8-1.01,2.49c-0.67,0.67-1.47,1.01-2.4,1.01
				C1318.82,883.03,1317.99,882.71,1317.32,882.05z M1326.89,882.05c-0.69-0.67-1.04-1.51-1.04-2.53c0-0.93,0.35-1.72,1.04-2.4
				c0.67-0.67,1.49-1.01,2.46-1.01c0.95,0,1.74,0.33,2.37,0.98c0.65,0.67,0.98,1.48,0.98,2.43c0,0.99-0.33,1.82-0.98,2.49
				c-0.65,0.67-1.44,1.01-2.37,1.01C1328.36,883.03,1327.54,882.71,1326.89,882.05z"/>
			<path class="st6" d="M1400.79,914.63v4.73h-46.09v-45.58h5.94v40.85h18.62c-4.61-2.07-6.91-5.88-6.91-11.43
				c0-4.27,1.32-7.77,3.98-10.48c2.88-2.97,6.88-4.45,11.99-4.45c3.01,0,5.81,0.47,8.4,1.42l-1.11,4.8
				c-2.35-1.06-4.91-1.58-7.67-1.58c-2.88,0-5.19,0.89-6.94,2.68c-1.79,1.81-2.68,4.26-2.68,7.36c0,3.49,1.34,6.26,4.04,8.3
				c2.98,2.25,7.36,3.38,13.13,3.38H1400.79z"/>
			<path class="st6" d="M1407.16,914.63h20.74c-0.08-5.96-1.39-10.65-3.91-14.08c-2.57-3.47-6.69-6.08-12.38-7.83l1.48-5.05
				c7.18,2.23,12.38,5.49,15.63,9.79c3.39,4.5,5.08,10.73,5.08,18.69v3.22h-26.64V914.63z"/>
			<path class="st6" d="M1494.11,877.1c-0.66-0.65-1.46-0.98-2.4-0.98c-0.97,0-1.79,0.34-2.47,1.01c-0.69,0.68-1.04,1.48-1.04,2.4
				c0,1.01,0.35,1.85,1.04,2.53c0.68,0.65,1.5,0.98,2.47,0.98c0.94,0,1.74-0.34,2.4-1.01c0.63-0.68,0.94-1.51,0.94-2.5
				C1495.05,878.59,1494.74,877.77,1494.11,877.1z M1484.54,877.1c-0.65-0.65-1.45-0.98-2.4-0.98c-0.97,0-1.78,0.34-2.43,1.01
				c-0.67,0.68-1.01,1.48-1.01,2.4c0,1.01,0.34,1.85,1.01,2.53c0.65,0.65,1.46,0.98,2.43,0.98c0.95,0,1.75-0.34,2.4-1.01
				c0.67-0.7,1.01-1.53,1.01-2.5C1485.55,878.59,1485.21,877.77,1484.54,877.1z"/>
			<path class="st6" d="M1553.33,919.36h1.2v-0.04C1554.14,919.36,1553.74,919.36,1553.33,919.36z"/>
			<path class="st6" d="M1603.71,873.78v40.85h-13.42v-11.87c0-9.66-4.61-14.49-13.82-14.49c-5.14,0-9.18,1.58-12.13,4.73
				c-2.69,2.91-4.04,6.59-4.04,11.05c0,4.04-0.73,6.88-2.21,8.52c-1.22,1.37-3.13,2.06-5.74,2.06h-4.93
				c0.3-3.69,0.44-6.85,0.44-9.51c0-6.69-0.77-12.8-2.33-18.34l-5.75,1.04c1.43,5.46,2.15,11.4,2.15,17.84
				c0,3.03-0.18,6.02-0.54,8.97h-2.11c-3.69,0-6.14-0.45-7.36-1.33c-1.39-1.03-2.08-3.19-2.08-6.47v-16.57h-5.78v14.42
				c0,6.95-2.22,10.42-6.66,10.42c-2.35,0-3.9-0.92-4.64-2.75c-0.52-1.3-0.79-3.88-0.79-7.73v-11.78h-5.93v12.95
				c0,3.32-0.53,5.65-1.58,6.97c-0.99,1.25-2.68,1.87-5.08,1.87h-8.46v-25.67h-5.94v25.67h-15.66v-24.09
				c-3.93-1.52-8.27-2.27-13-2.27c-5.26,0-9.36,1.6-12.28,4.79c-2.67,2.93-4.01,6.68-4.01,11.24c0,10.04,5.65,15.06,16.95,15.06h6.5
				v1.55c0,6.73-4.11,10.1-12.34,10.1c-3.26,0-6.7-0.41-10.32-1.23l-0.41,4.95c3.41,0.66,6.77,0.98,10.1,0.98
				c6.44,0,11.31-1.58,14.62-4.73c2.8-2.67,4.19-6.14,4.19-10.39v-1.23h30.06c4.52,0,7.4-1.7,8.65-5.11
				c1.03,3.7,3.82,5.55,8.36,5.55c5.07,0,8.33-1.87,9.76-5.62c0.92,2,2.36,3.37,4.32,4.11c1.87,0.71,4.87,1.07,9,1.07h13.86
				c0.41,0,0.81-0.01,1.2-0.04c4.74-0.28,7.63-2.3,8.68-6.05c2.44,4.06,7.42,6.09,14.93,6.09h31.5v-45.58H1603.71z M1463.48,914.63
				h-5.68c-7.85,0-11.77-3.67-11.77-10.99c0-3.22,0.86-5.8,2.59-7.73c1.72-1.96,4.08-2.94,7.07-2.94c3.09,0,5.69,0.51,7.79,1.52
				V914.63z M1584.48,914.63h-6.4c-7.85,0-11.78-3.65-11.78-10.93c0-3.26,0.86-5.85,2.59-7.76c1.72-1.98,4.08-2.97,7.07-2.97
				c5.68,0,8.52,3.6,8.52,10.8V914.63z"/>
			<path class="st6" d="M1621.89,873.78h5.93v45.58h-5.93V873.78z"/>
		</g>
	</g>
</g>
</svg>
